<svg xmlns="http://www.w3.org/2000/svg">
<defs>
<font id="UTMHelveBold" horiz-adv-x="1175" >
  <font-face 
    font-family="UTM Helve"
    font-weight="700"
    font-stretch="normal"
    units-per-em="2048"
    panose-1="2 4 6 3 5 5 6 2 2 4"
    ascent="1638"
    descent="-410"
    x-height="1090"
    cap-height="1470"
    bbox="-87 -446 4942 2443"
    underline-thickness="109"
    underline-position="-143"
    unicode-range="U+0020-U+2026"
  />
<missing-glyph horiz-adv-x="5040" 
d="M3351 2045h10q37 -10 37 -52q0 -12 -32 -57h-28q0 24 28 54l2 10q-5 13 -10 15h-9q-8 0 -10 -19h-30q6 49 42 49zM2019 2016l29 -31q0 -16 -40 -30h-19l-59 12l-11 -12l-28 25q11 29 43 29h11l42 -11h2q10 0 30 18zM468 1980h142v-60h-94v-75h89v-59h-89v-129l-5 -5h-49
v323zM1155 1980h43l6 -5v-78h30v-52h-30v-188l-6 -5h-49v193h-25v52h25v78zM1621 1980h42l4 -5v-94h3q23 24 54 24h2q58 0 83 -71l2 -39v-143h-52v115q0 80 -42 80h-7q-43 0 -43 -86v-109h-51v323zM2200 1980h49l5 -5v-222q10 -51 45 -51q44 7 44 59v214l5 5h49v-216
q0 -85 -66 -112q-15 -8 -35 -8q-47 0 -82 55q-14 24 -14 57v224zM2435 1980h159v-60h-56v-268h-53v268h-55v55zM2621 1980h71q7 -4 83 -251h2l80 251h73v-328h-54v242h-2l-74 -242h-44q-4 0 -58 182l-19 60h-3v-242h-55v328zM3760 1980h52v-328h-45l-5 5v11l3 2l-3 14
q-29 -40 -78 -40q-67 0 -100 91l-5 39v3q0 94 92 125l23 3q35 0 63 -32h3v107zM2057 1928h36l4 -6v-49h-45v-221h-48v23q-23 -31 -59 -31q-89 14 -89 97v156h51v-104q0 -79 26 -86l18 -5h6q26 0 39 36l3 26v133h53v25zM3476 1928v-55h-31v-221h-47v25h-2q-15 -33 -57 -33
q-68 0 -86 78l-3 29v146h52v-120q0 -50 19 -68l21 -7h9q42 0 42 69v126h27q4 0 4 28l3 3h49zM758 1905q68 0 103 -77q9 -18 12 -54q0 -88 -90 -127l-32 -3q-63 0 -101 73q-12 22 -12 52v10q0 94 101 126h19zM1011 1905h3q74 0 83 -101v-152h-51v119q0 76 -42 76h-5
q-44 0 -44 -76v-119h-52v245h46v-21q30 29 62 29zM1466 1905h7q72 0 105 -89h-60q-16 31 -42 31h-17q-53 -14 -53 -61l-3 -15q12 -69 61 -69h9q22 0 47 27h40l2 3h3l2 -3l2 3l3 -3l2 3l2 -7q-33 -81 -110 -81q-76 0 -110 94l-4 36v3q0 85 77 120q15 8 37 8zM3141 1905h2

<glyph glyph-name=".notdef" horiz-adv-x="5040" 
d="M3351 2045h10q37 -10 37 -52q0 -12 -32 -57h-28q0 24 28 54l2 10q-5 13 -10 15h-9q-8 0 -10 -19h-30q6 49 42 49zM2019 2016l29 -31q0 -16 -40 -30h-19l-59 12l-11 -12l-28 25q11 29 43 29h11l42 -11h2q10 0 30 18zM468 1980h142v-60h-94v-75h89v-59h-89v-129l-5 -5h-49
v323zM1155 1980h43l6 -5v-78h30v-52h-30v-188l-6 -5h-49v193h-25v52h25v78zM1621 1980h42l4 -5v-94h3q23 24 54 24h2q58 0 83 -71l2 -39v-143h-52v115q0 80 -42 80h-7q-43 0 -43 -86v-109h-51v323zM2200 1980h49l5 -5v-222q10 -51 45 -51q44 7 44 59v214l5 5h49v-216
q0 -85 -66 -112q-15 -8 -35 -8q-47 0 -82 55q-14 24 -14 57v224zM2435 1980h159v-60h-56v-268h-53v268h-55v55zM2621 1980h71q7 -4 83 -251h2l80 251h73v-328h-54v242h-2l-74 -242h-44q-4 0 -58 182l-19 60h-3v-242h-55v328zM3760 1980h52v-328h-45l-5 5v11l3 2l-3 14
q-29 -40 -78 -40q-67 0 -100 91l-5 39v3q0 94 92 125l23 3q35 0 63 -32h3v107zM2057 1928h36l4 -6v-49h-45v-221h-48v23q-23 -31 -59 -31q-89 14 -89 97v156h51v-104q0 -79 26 -86l18 -5h6q26 0 39 36l3 26v133h53v25zM3476 1928v-55h-31v-221h-47v25h-2q-15 -33 -57 -33
q-68 0 -86 78l-3 29v146h52v-120q0 -50 19 -68l21 -7h9q42 0 42 69v126h27q4 0 4 28l3 3h49zM758 1905q68 0 103 -77q9 -18 12 -54q0 -88 -90 -127l-32 -3q-63 0 -101 73q-12 22 -12 52v10q0 94 101 126h19zM1011 1905h3q74 0 83 -101v-152h-51v119q0 76 -42 76h-5
q-44 0 -44 -76v-119h-52v245h46v-21q30 29 62 29zM1466 1905h7q72 0 105 -89h-60q-16 31 -42 31h-17q-53 -14 -53 -61l-3 -15q12 -69 61 -69h9q22 0 47 27h40l2 3h3l2 -3l2 3l3 -3l2 3l2 -7q-33 -81 -110 -81q-76 0 -110 94l-4 36v3q0 85 77 120q15 8 37 8zM3141 1905h2
q49 0 70 -60v-14h-52q0 16 -16 16h-4q-14 0 -19 -13v-13q0 -9 68 -35q30 -19 30 -59q0 -58 -61 -80l-23 -3q-76 12 -76 83h54q0 -20 27 -25h4q19 0 24 23q0 22 -68 44q-34 27 -34 59q0 66 74 77zM4203 1905q55 0 77 -63q7 -18 7 -65v-125h-52v112q0 83 -40 83h-11
q-33 0 -40 -54v-141h-52v5h-2l2 2v238h47v-21q25 29 64 29zM4432 1905h5q40 0 69 -40v18l-3 3l3 11h47v-208q0 -97 -85 -132l-33 -4h-7q-70 0 -104 80h59q24 -22 45 -23h13q22 0 43 22q15 13 22 52h-3q-32 -40 -73 -40q-57 0 -96 70q-10 18 -14 63q0 88 87 125zM3851 1897
h53v-136q6 -59 40 -59h7q46 0 46 93v102h51v-245h-47l-3 10h3l-3 3v5l3 2v3h-4q0 -23 -57 -31h-3q-59 0 -84 75l-2 85v93zM690 1771q10 -69 63 -69h7q59 14 59 65v15q-13 65 -59 65h-5q-58 0 -65 -76zM3630 1774q13 -72 61 -72h5q58 0 66 75q0 49 -51 70h-22q-37 0 -56 -57z
M4374 1774q8 -72 65 -72h5q59 12 59 72q0 61 -59 73h-14q-56 -16 -56 -62v-11zM3928 1620h52v-57h-52v57zM1054 1402q43 -11 43 -49v-4q0 -17 -32 -60h-28q0 25 31 57v7q0 12 -7 15h-12q-10 -4 -10 -19h-28v6q0 32 33 44zM3349 1339q92 0 138 -99h-60q-37 42 -80 42
q-55 0 -87 -68q-10 -22 -10 -47q0 -78 81 -110l18 -1q36 0 75 39h61q-44 -97 -138 -97q-93 0 -141 112q-10 31 -10 62q0 97 90 152q29 15 63 15zM3664 1339q57 0 103 -47q46 -51 46 -115v-20q0 -89 -91 -146q-33 -13 -63 -13q-89 0 -138 101q-13 33 -13 60v18q0 98 98 151
q29 11 58 11zM2261 1337h2l47 -11h3q11 0 26 11l18 -36q-18 -19 -35 -19h-3l-54 10l-20 -7l-20 36q18 16 36 16zM716 1334h19q118 0 129 -26q25 -26 25 -62q-10 -57 -30 -57v-6q47 -23 47 -66v-18q0 -63 -69 -88l-54 -5h-67v328zM2550 1334h53v-217q6 -61 45 -61q29 0 44 39
l3 30v203l4 6h45l5 -6v-171q0 -118 -40 -133q-24 -26 -64 -26q-55 0 -91 76l-4 54v206zM2805 1334h59q4 0 122 -237h4v237h50l4 -6v-322h-58q-29 48 -125 238h-3v-238h-53v328zM3101 1334h54v-328h-54v328zM3859 1334h8q155 0 174 -40q23 -11 47 -75l4 -36v-11l3 -2
q0 -94 -82 -149q-35 -15 -99 -15h-55v328zM4141 1334h153v-60h-103v-75h101v-57h-101v-74l4 -5h99v-57h-157v322zM3563 1175v-10q0 -76 79 -108l19 -1q68 0 96 86l3 20v15q0 61 -60 94q-12 8 -39 11q-66 0 -96 -83zM770 1274v-67h9q54 0 54 28l3 14q-11 25 -29 25h-37z
M3912 1274v-206l2 -3v-2q104 0 122 76l2 15v29q0 34 -32 68q-25 23 -78 23h-16zM1041 1259h5q38 0 71 -40v32h49v-245h-49v32q-36 -40 -80 -40q-75 0 -101 97l-5 36q0 89 85 125zM1314 1259h3q74 0 83 -102v-151h-51v128q0 67 -42 67h-10q-34 0 -39 -62v-133h-52v245h47v-21
q28 29 61 29zM1543 1259h5q45 0 71 -40v32h47v-219q0 -95 -104 -126h-16q-74 0 -108 82h59q26 -25 44 -25h14q52 0 64 77q-33 -42 -76 -42q-60 0 -101 81l-7 44v16q0 79 85 117zM1912 1259h2q43 0 61 -37h2q32 37 69 37h4q57 0 79 -55q8 -25 8 -45v-153h-52v138q0 44 -23 55
l-12 2h-15q-32 0 -36 -65v-130h-52v136q0 59 -43 59h-8q-32 0 -36 -57v-138h-54v245h50v-21h2q6 24 54 29zM2282 1259q47 0 75 -42v34h47v-245h-47v32q-36 -40 -78 -40q-74 0 -102 92l-6 41q0 90 85 125zM985 1117q0 -48 61 -61h4q45 0 62 46l3 15v22q-12 62 -57 62h-14
q-41 0 -59 -57v-27zM1487 1128q0 -48 43 -68l18 -4h5q47 0 63 57v23q-11 65 -58 65h-12q-50 0 -59 -73zM2225 1131v-14q15 -61 57 -61h14q58 12 58 64v11q0 45 -37 65l-18 5h-10q-64 -8 -64 -70zM770 1150v-82q0 -5 7 -5q77 0 77 45q0 34 -47 42h-37zM2966 753l24 -28
l-51 -55q-18 12 -27 26zM1524 727l85 -54q0 -15 -21 -42l-87 54q18 41 23 42zM2850 693h38l55 -60h-54l-21 26l-23 -26h-54q54 60 59 60zM3422 693h40l56 -60h-54l-24 26h-1q0 -5 -19 -26h-54zM622 685h52q8 -4 47 -137l34 -110q9 8 34 100l48 147h54v-2l-112 -326h-44z
M1159 685h51v-54h-51v54zM1354 685h46l6 -5v-323h-52v328zM2317 685h45l4 -5v-78h31v-52h-31v-193h-53v193h-26v52h26v78zM2425 685h52v-98h2q23 23 54 23h3q57 0 81 -71l3 -38v-144h-52v115q0 81 -39 81h-10q-42 0 -42 -87v-109h-52v328zM2664 685h52v-54h-52v54zM3028 685
h44l6 -5v-78h29v-52h-29v-193h-54v193h-27v52h27v78zM3234 685h52v-328h-52v328zM3957 685h52v-328h-52v328zM4316 685h51v-54h-51v54zM1555 610h5q83 0 110 -102l3 -23v-11q0 -83 -85 -120l-35 -5q-76 0 -111 97l-4 32q0 97 93 130zM1811 610h4q53 0 78 -60q7 -25 7 -81
v-112h-54v146q-7 50 -37 50h-10q-38 0 -42 -57v-139h-54v245h49v-21q26 29 59 29zM2046 610h4q45 0 63 -39h3v31h49v-206q0 -102 -89 -135l-28 -3h-5q-73 0 -106 81h52l37 -20l15 -3h14q50 0 61 72q-33 -39 -73 -39q-62 0 -98 76q-11 23 -12 60q0 85 86 123zM2866 610h2
q82 0 111 -104l2 -25l-2 -27h-172q15 -45 45 -45l14 -3q29 0 49 22h57v-3q-35 -76 -108 -76q-77 0 -111 97l-1 28v8q0 49 32 89q34 39 82 39zM3429 610h5q41 0 70 -39h2v31h47v-245h-47v31h-2q-35 -39 -77 -39q-71 0 -101 89l-5 36v14q0 86 84 120zM3711 610h7
q88 0 107 -128l-2 -1v-15q0 -65 -66 -106q-21 -11 -46 -11q-34 0 -64 32v-99l-5 -5h-49v325h49v-28q31 36 69 36zM4151 610q44 0 75 -39v31h49v-245h-49v31q-35 -39 -77 -39q-92 0 -108 132q0 84 73 121q15 8 37 8zM922 602h50v-136q3 -60 42 -60h5q44 0 44 87v109h52v-245
h-47v24h-5q0 -23 -56 -32h-3q-55 0 -82 68q-4 35 -4 99v81zM1159 602h51v-245h-51v245zM2664 602h52v-245h-52v245zM4316 602h51v-245h-51v245zM1492 488v-16q13 -66 59 -66h4q59 0 66 76q-13 71 -59 71h-11q-59 -16 -59 -65zM1987 472q15 -66 59 -66h11q48 0 59 75v1
q-13 71 -59 71h-14q-39 0 -56 -57v-24zM2805 506h122v2q-16 45 -59 45h-7q-35 0 -56 -47zM3373 474q13 -68 61 -68h5q52 0 65 63v12q-10 72 -57 72h-16q-56 -14 -56 -63zM3642 478q12 -72 61 -72h3q50 0 65 60v22q0 43 -49 65h-22q-47 0 -58 -72v-3zM4095 472q10 -66 66 -66
q43 0 61 48l2 15v16q0 54 -52 68h-18q-42 0 -59 -60v-21zM3416 321h51v-52h-51v52zM4137 321h51v-52h-51v52zM2733 133h4q35 0 43 -50v-2q0 -16 -24 -41l-10 -17h-28q0 25 28 56l3 2v2q-3 19 -9 19h-10q-8 0 -9 -19h-30q6 50 42 50zM1546 116l52 -60l-26 -19l-52 52zM352 79
h4q75 -48 85 -60l-20 -37q-88 49 -88 58zM3490 79l86 -58l-18 -39q-10 0 -91 55q15 36 23 42zM4578 76l19 -42l-91 -52l-20 39l92 58v-3zM1204 53h51v-19l5 -5h14v-36h-14l-5 -5v-279h-46v31q-34 -40 -81 -40q-72 0 -102 105l-3 26q0 102 101 131h14q33 0 66 -33v59l-6 5
h-43v36h49v24zM1480 45h40l56 -61h-53l-23 27l-23 -27h-53zM2641 45h33q12 0 63 -61h-54l-23 27q-19 -21 -19 -27h-58v4zM49 37h160v-60h-56v-268h-50l-4 5v245l2 3v2l-2 2l2 3l-2 2l2 3l-2 3h-54v54zM699 37h47v-73l2 -2l-2 -3v-3l2 -2l-2 -3v-3l2 -2v-2l-2 -3l2 -3h3
q17 24 51 24h3q53 0 77 -58q7 -17 7 -42v-153h-52v127q0 68 -40 68h-8q-43 0 -43 -86v-109h-52v322zM1297 37h47l5 -6v-49h-52v55zM1987 37h52v-198l70 115h62l-78 -118l90 -125v-2h-70q-10 22 -74 115v-115h-52v328zM2271 37v-99q24 24 53 24q57 0 80 -56q10 -19 10 -77
v-120h-54v133q0 62 -41 62h-11q-31 0 -37 -55v-140h-53v314l-1 3v3l1 2l-1 3l1 3h53zM2458 37h51v-55h-51v55zM3148 37h51v-108q27 33 68 33h3q75 0 105 -94l5 -37q0 -75 -64 -120q-30 -11 -49 -11q-41 0 -72 40v-31h-47v328zM4275 37h52v-99h2q23 24 54 24h3q60 0 82 -74
l2 -41v-138h-52v111q0 82 -32 82l-10 2h-12q-37 0 -37 -80v-115h-52v328zM329 -38h3v-58h-5q-42 0 -42 -57v-138h-53v245h47v-21q18 29 50 29zM564 -38q71 0 86 -87v-166h-51v136q-6 59 -41 59h-6q-45 0 -45 -84v-111h-52v245h50v-21q25 29 59 29zM1504 -38q72 0 105 -94
l5 -39q-2 -24 -7 -24h-169q17 -47 62 -47q24 0 48 21h57q-33 -79 -108 -79q-82 0 -113 105v37q0 81 89 117zM2657 -38h5q77 0 107 -97l3 -26v-21l-3 -13h-170q18 -47 53 -47h12q21 0 42 21h59q-34 -79 -105 -79q-84 0 -115 102l-2 29q0 93 91 128zM2915 -38h4q54 0 78 -60
q7 -25 7 -82v-111h-54v138q0 48 -35 57h-11q-38 0 -43 -57v-138h-54v245h50v-21q25 29 58 29zM3508 -38h6q40 0 70 -40h2v32h47v-245h-47v31h-2q-34 -40 -78 -40q-71 0 -101 90l-4 37v12q0 82 77 117q11 6 30 6zM3781 -38h4q62 0 82 -78l3 -84v-91h-54v138q0 48 -38 57h-9
q-38 0 -42 -52v-143h-54v245h49v-21q26 29 59 29zM4133 -38h1q74 0 104 -93l4 -40q0 -88 -84 -126l-25 -3q-41 0 -68 34v-106h-52v326h47v-29q30 37 73 37zM4714 -38h5q34 0 63 -37q27 37 69 37h6q56 0 79 -66l6 -51v-136h-52v122q0 73 -39 73h-7q-35 0 -41 -50v-140l-5 -5
h-48v140q0 42 -31 55h-17q-40 0 -40 -77v-118h-51v245h47v-21q22 29 56 29zM359 -46h49l5 -6v-234l-5 -5h-49v245zM1297 -46h52v-245h-52v245zM1649 -46h52v-136q4 -60 43 -60h4q44 0 44 81v115h52v-245h-47v24h-5q-12 -33 -59 -33q-52 0 -79 63q-5 12 -5 34v157zM2458 -46
h51v-245h-51v245zM4515 -46h51v-245h-51v245zM1077 -169q0 -53 51 -73h12q54 0 66 66v10q0 53 -54 70h-17q-38 0 -58 -57v-16zM1438 -143h122q-18 47 -53 47h-7q-43 0 -62 -44v-3zM2599 -143h122q-21 47 -54 47h-7q-46 0 -61 -47zM3196 -158v-11q10 -73 61 -73h5q64 8 64 71
v5q0 45 -38 65l-18 5h-14q-60 -14 -60 -62zM3452 -173q14 -69 62 -69h11q41 0 59 60v13q-8 73 -56 73h-17q-47 0 -59 -73v-4zM4062 -158v-22q0 -47 59 -62h9q50 0 61 76q-13 70 -58 70h-15q-56 -17 -56 -62z" />
    <glyph glyph-name=".null" horiz-adv-x="0" 
 />
    <glyph glyph-name="nonmarkingreturn" horiz-adv-x="571" 
 />
    <glyph glyph-name="space" unicode=" " horiz-adv-x="602" 
 />
    <glyph glyph-name="exclam" unicode="!" horiz-adv-x="716" 
d="M491 291v-291h-299v291h299zM499 1098l-82 -688h-151l-82 688v372h315v-372z" />
    <glyph glyph-name="quotedbl" unicode="&#x22;" horiz-adv-x="1015" 
d="M569 918v552h200v-552h-200zM200 918v552h201v-552h-201z" />
    <glyph glyph-name="numbersign" unicode="#" 
d="M1044 594l-25 -184h-201l-57 -410h-193l58 410h-197l-57 -410h-193l58 410h-201l25 184h200l33 246h-197l25 184h197l57 406h192l-57 -406h201l57 406h193l-58 -406h197l-25 -184h-196l-37 -246h201zM687 840h-200l-33 -246h196z" />
    <glyph glyph-name="dollar" unicode="$" 
d="M1048 1028h-262q0 127 -53 174q-39 35 -115 35v-381q139 -45 220 -85t120 -79q55 -51 85 -122.5t30 -163.5q0 -168 -101 -291q-125 -152 -354 -152v-201h-94v201q-248 21 -355.5 133.5t-107.5 345.5h270q11 -123 41 -172q41 -65 152 -86v430q-199 54 -291 121
q-139 105 -139 293q0 182 104 297q117 129 326 129v135h94v-135q176 -18 270 -82q160 -106 160 -344zM524 885v352q-84 0 -128 -49t-44 -111q0 -90 55 -139q43 -39 117 -53zM618 578v-394q68 0 115 39q65 53 65 162q0 80 -59 133q-47 41 -121 60z" />
    <glyph glyph-name="percent" unicode="%" horiz-adv-x="1892" 
d="M1020 348q0 156 108.5 264.5t263.5 108.5q152 0 262.5 -108.5t110.5 -264.5q0 -151 -110.5 -262t-262.5 -111q-153 0 -262.5 107.5t-109.5 265.5zM1228 348q0 -67 48.5 -113.5t115.5 -46.5q66 0 113 45.5t47 114.5q0 66 -47 115t-113 49q-67 0 -115.5 -48t-48.5 -116z
M57 1081q0 156 108.5 264.5t264.5 108.5q153 0 262.5 -109.5t109.5 -263.5q0 -153 -109.5 -262.5t-262.5 -109.5q-154 0 -263.5 107.5t-109.5 264.5zM270 1081q0 -65 47 -112t113 -47q67 0 115.5 46t48.5 113q0 68 -48.5 116t-115.5 48q-66 0 -113 -47t-47 -117zM1388 1454
l-815 -1495h-151l815 1495h151z" />
    <glyph glyph-name="ampersand" unicode="&#x26;" horiz-adv-x="1544" 
d="M794 1135q0 59 -34 88.5t-89 29.5q-49 0 -84 -30.5t-35 -87.5q0 -66 107 -185q65 41 96 80q39 49 39 105zM1171 324l266 -324h-348l-98 127q-78 -78 -160 -117q-109 -51 -262 -51q-203 0 -331 124t-128 298q0 123 49 209q66 115 234 217l32 20q-55 64 -90 131
q-45 91 -45 177q0 149 109.5 242t283.5 93q138 0 240 -79q121 -95 121 -261q0 -133 -98 -237q-60 -64 -148 -111l209 -258q29 45 49.5 104.5t28.5 137.5h254q-15 -150 -52.5 -245t-115.5 -197zM843 307l-270 336q-103 -72 -133 -111q-43 -53 -43 -135q0 -63 43 -116
q61 -76 174 -76q65 0 131 33q49 24 98 69z" />
    <glyph glyph-name="quotesingle" unicode="'" horiz-adv-x="507" 
d="M143 918v552h201v-552h-201z" />
    <glyph glyph-name="parenleft" unicode="(" horiz-adv-x="716" 
d="M642 -426h-209q-163 219 -249 422q-111 262 -111 541q0 276 106 536q87 207 254 430h209q-131 -225 -194 -424q-80 -254 -80 -542q0 -291 82 -545q59 -187 192 -418z" />
    <glyph glyph-name="parenright" unicode=")" horiz-adv-x="716" 
d="M40 1503h209q164 -219 250 -422q110 -262 110 -536q0 -281 -106 -541q-84 -207 -254 -430h-209q133 225 195 424q79 254 79 547q0 289 -81 540q-62 187 -193 418z" />
    <glyph glyph-name="asterisk" unicode="*" horiz-adv-x="831" 
d="M692 1298l49 -151l-213 -66l139 -196l-127 -90l-139 184l-143 -184l-127 90l139 196l-213 66l45 151l209 -69v241h176v-241z" />
    <glyph glyph-name="plus" unicode="+" horiz-adv-x="1245" 
d="M482 635v401h230v-401h401v-229h-401v-406h-230v406h-401v229h401z" />
    <glyph glyph-name="comma" unicode="," horiz-adv-x="602" 
d="M438 299v-258q0 -178 -86 -272q-71 -78 -217 -113l-4 106q82 31 115 64q57 59 57 174h-172v299h307z" />
    <glyph glyph-name="hyphen" unicode="-" horiz-adv-x="716" 
d="M626 709v-267h-569v267h569z" />
    <glyph glyph-name="hyphen" unicode="&#x2010;" horiz-adv-x="716" 
d="M626 709v-267h-569v267h569z" />
    <glyph glyph-name="period" unicode="." horiz-adv-x="602" 
d="M438 299v-299h-307v299h307z" />
    <glyph glyph-name="slash" unicode="/" horiz-adv-x="602" 
d="M640 1511l-467 -1552h-242l467 1552h242z" />
    <glyph glyph-name="zero" unicode="0" 
d="M65 709q0 385 123 565t381 180t381 -180t123 -565q0 -381 -123 -565.5t-381 -184.5q-504 0 -504 750zM360 709q0 -285 44 -400.5t165 -115.5t165 113.5t44 402.5q0 288 -44 402t-165 114t-165 -114t-44 -402z" />
    <glyph glyph-name="one" unicode="1" 
d="M143 1004v200h41q186 0 281 84q75 68 75 166h234v-1454h-287v1004h-344z" />
    <glyph glyph-name="two" unicode="2" 
d="M348 942h-279q0 238 117 369q127 143 359 143q217 0 358 -122t141 -337q0 -168 -96 -293q-66 -86 -207 -178l-178 -125q-119 -88 -145 -145h630v-254h-995q0 160 51 266q76 156 289 312q178 131 229 176q136 118 136 254q0 79 -48 137q-55 67 -153 67q-133 0 -180 -94
q-29 -57 -29 -176z" />
    <glyph glyph-name="three" unicode="3" 
d="M438 639v205h45q100 0 152 26q90 48 90 170q0 64 -31 111q-47 74 -150 74q-127 0 -172 -99q-24 -53 -24 -139h-266q0 213 116 336q125 131 363 131q178 0 299 -86q151 -108 151 -319q0 -101 -55 -179q-47 -65 -117 -96q107 -45 162 -132t55 -212q0 -207 -138 -339
t-357 -132q-180 0 -301 72q-203 121 -203 415h279q0 -94 32 -155q54 -98 181 -98q92 0 152.5 60t60.5 177q0 133 -113 180q-68 29 -211 29z" />
    <glyph glyph-name="four" unicode="4" 
d="M266 545h364l5 626zM1077 545v-221h-160v-324h-287v324h-573v245l532 885h328v-909h160z" />
    <glyph glyph-name="five" unicode="5" 
d="M409 1188l-53 -316q59 41 96 56q68 26 166 26q168 0 291 -108q147 -131 147 -363q0 -196 -102 -336q-139 -188 -426 -188q-188 0 -319 104q-152 121 -152 326h287q10 -92 59 -144t141 -52q103 0 160.5 75.5t57.5 194.5q0 108 -50 180q-57 82 -163 82q-68 0 -116 -26.5
t-77 -80.5l-254 13l98 799h799v-242h-590z" />
    <glyph glyph-name="six" unicode="6" 
d="M1036 1085h-283q-6 64 -48 102t-120 38q-129 0 -190 -129q-51 -107 -51 -273l4 -4q39 51 90 80q76 43 184 43q211 0 334 -143q108 -127 108 -307q0 -238 -131 -385.5t-344 -147.5q-297 0 -426 231q-98 179 -98 502q0 195 27 320q41 194 149 305q135 137 365 137
q67 0 141 -18q106 -27 154 -76q61 -60 89.5 -113t45.5 -162zM778 467q0 127 -70 192q-57 54 -139 54q-88 0 -148 -58q-69 -67 -69 -192q0 -119 61.5 -194.5t163.5 -75.5q86 0 139 63q62 74 62 211z" />
    <glyph glyph-name="seven" unicode="7" 
d="M1081 1430v-222q-123 -133 -199 -239q-141 -197 -223 -410q-106 -274 -106 -559h-295q0 264 106 535q82 206 221 407q89 127 189 234h-721l4 254h1024z" />
    <glyph glyph-name="eight" unicode="8" 
d="M573 864q80 0 128 50.5t48 129.5q0 82 -47 131.5t-121 49.5q-94 0 -145.5 -49.5t-51.5 -131.5q0 -71 50.5 -125.5t138.5 -54.5zM1073 434q0 -174 -107 -305q-139 -170 -397 -170q-256 0 -391 147q-113 123 -113 300q0 104 27 172q51 131 194 196q-88 45 -132 112.5
t-44 170.5q0 184 128 290.5t327 106.5q215 0 342 -113q116 -104 116 -264q0 -100 -39.5 -175t-127.5 -120q110 -55 159 -129q58 -84 58 -219zM778 422q0 92 -45 151q-56 74 -168 74q-86 0 -142 -51q-63 -59 -63 -174q0 -105 58.5 -167t154.5 -62q102 0 158 75q47 64 47 154z
" />
    <glyph glyph-name="nine" unicode="9" 
d="M348 975q0 -152 65 -215q54 -51 152 -51q84 0 141 55q68 65 68 186q0 271 -217 271q-78 0 -131 -43q-78 -64 -78 -203zM90 336h286q13 -76 55 -109.5t113 -33.5q103 0 164 86q74 104 74 319l-4 4q-45 -67 -125 -98q-64 -25 -150 -25q-202 0 -322 131t-120 324
q0 256 141 393q131 127 355 127q325 0 444 -295q68 -166 68 -450q0 -392 -166 -586q-140 -164 -363 -164q-184 0 -308 103.5t-142 273.5z" />
    <glyph glyph-name="colon" unicode=":" horiz-adv-x="716" 
d="M495 299v-299h-307v299h307zM495 1049v-299h-307v299h307z" />
    <glyph glyph-name="semicolon" unicode=";" horiz-adv-x="716" 
d="M495 299v-258q0 -178 -86 -272q-71 -78 -217 -113l-4 106q82 31 115 64q57 59 57 174h-172v299h307zM495 1049v-299h-307v299h307z" />
    <glyph glyph-name="less" unicode="&#x3c;" horiz-adv-x="1245" 
d="M1117 205v-221l-1040 442v184l1040 443v-222l-741 -311z" />
    <glyph glyph-name="equal" unicode="=" horiz-adv-x="1245" 
d="M1113 860v-229h-1032v229h1032zM1113 410v-230h-1032v230h1032z" />
    <glyph glyph-name="greater" unicode="&#x3e;" horiz-adv-x="1245" 
d="M77 205l745 315l-745 311v222l1040 -443v-184l-1040 -442v221z" />
    <glyph glyph-name="question" unicode="?" horiz-adv-x="1314" 
d="M765 426h-270q0 160 33 231q40 88 176 183q65 45 96 93t31 111q0 109 -66 162q-53 43 -131 43q-123 0 -180 -82q-41 -59 -41 -155l-291 -4q0 247 162 376q133 107 330 107q243 0 389 -123q135 -115 135 -315q0 -119 -64 -209q-55 -78 -182 -168q-72 -53 -96 -94
q-31 -54 -31 -156zM786 287v-287h-299v287h299z" />
    <glyph glyph-name="at" unicode="@" horiz-adv-x="2076" 
d="M1191 770q0 78 -45 127t-119 49q-102 0 -171.5 -87t-69.5 -191q0 -80 44 -130.5t116 -50.5q106 0 175.5 87.5t69.5 195.5zM1253 1012l24 106h181l-119 -520q-8 -45 -17 -90q0 -41 33 -41q88 0 161 101.5t73 258.5q0 244 -158 382.5t-404 138.5q-260 0 -420.5 -175.5
t-160.5 -439.5q0 -272 171 -439t439 -167q125 0 236.5 44t193.5 120h185q-107 -156 -271 -244t-356 -88q-336 0 -569.5 223.5t-233.5 554.5q0 326 232.5 550t558.5 224q290 0 499 -172q221 -182 221 -462q0 -289 -206 -461q-160 -133 -314 -133q-51 0 -85 26.5t-34 79.5
l-4 4q-41 -47 -98 -78.5t-115 -31.5q-135 0 -233 105.5t-98 250.5q0 199 120 346q129 158 318 158q82 0 143.5 -31t106.5 -100z" />
    <glyph glyph-name="A" unicode="A" horiz-adv-x="1454" 
d="M430 303l-102 -303h-324l524 1470h357l516 -1470h-332l-94 303h-545zM512 557h377l-185 582z" />
    <glyph glyph-name="B" unicode="B" horiz-adv-x="1544" 
d="M155 0v1470h717q241 0 360 -131q90 -100 90 -245q0 -138 -65 -217q-39 -48 -115 -82q127 -50 182 -150q48 -84 48 -207q0 -90 -33 -166.5t-94 -136.5q-76 -72 -152 -98q-107 -37 -315 -37h-623zM450 647v-393h377q116 0 176.5 52t60.5 165q0 88 -63.5 132t-157.5 44h-393
zM450 1217v-320h360q99 0 154 37q63 43 63 127q0 86 -56 121t-169 35h-352z" />
    <glyph glyph-name="C" unicode="C" horiz-adv-x="1544" 
d="M1401 991h-307q-31 107 -76 158q-84 96 -248 96q-143 0 -238 -100q-127 -133 -127 -416q0 -215 84 -348q97 -152 281 -152q127 0 212 71t112 204h307q-49 -250 -203 -391q-168 -154 -436 -154q-301 0 -482 197q-190 206 -190 577q0 373 197 582q184 196 479 196
q303 0 483 -178q152 -151 152 -342z" />
    <glyph glyph-name="D" unicode="D" horiz-adv-x="1544" 
d="M155 0v1470h651q332 0 486 -245q112 -181 112 -455q0 -297 -123 -502q-161 -268 -487 -268h-639zM458 1217v-963h299q174 0 260 156q72 129 72 340q0 284 -119 395q-78 72 -217 72h-295z" />
    <glyph glyph-name="E" unicode="E" horiz-adv-x="1429" 
d="M1236 1470v-258h-778v-311h717v-258h-717v-381h815v-262h-1118v1470h1081z" />
    <glyph glyph-name="F" unicode="F" horiz-adv-x="1314" 
d="M462 618v-618h-307v1470h1049v-258h-742v-331h647v-263h-647z" />
    <glyph glyph-name="G" unicode="G" horiz-adv-x="1658" 
d="M848 545v250h614v-795h-205l-32 184q-91 -102 -156 -145q-125 -80 -303 -80q-283 0 -469 193q-207 213 -207 581q0 326 174 539q197 239 547 239q307 0 489 -172q154 -145 154 -323h-307q0 63 -78 141q-98 100 -242 100q-180 0 -293 -122q-129 -142 -129 -406
q0 -276 134 -403q108 -105 292 -105q136 0 231 87t126 237h-340z" />
    <glyph glyph-name="H" unicode="H" horiz-adv-x="1544" 
d="M1028 659h-574v-659h-307v1470h307v-557h574v557h307v-1470h-307v659z" />
    <glyph glyph-name="I" unicode="I" horiz-adv-x="602" 
d="M438 1470v-1470h-307v1470h307z" />
    <glyph glyph-name="J" unicode="J" 
d="M991 1470v-1044q0 -231 -115.5 -347t-338.5 -116q-326 0 -431 191q-61 112 -61 403h287q0 -195 28 -260q37 -84 152 -84q108 0 145 63q27 46 27 150v1044h307z" />
    <glyph glyph-name="K" unicode="K" horiz-adv-x="1544" 
d="M487 500v-500h-307v1470h307v-598l561 598h398l-602 -602l634 -868h-393l-454 647z" />
    <glyph glyph-name="L" unicode="L" horiz-adv-x="1314" 
d="M462 1470v-1204h733v-266h-1040v1470h307z" />
    <glyph glyph-name="M" unicode="M" horiz-adv-x="1777" 
d="M1568 1470v-1470h-286v1229l-279 -1229h-303l-266 1229l-4 -1229h-287v1470h446l267 -1159l266 1159h446z" />
    <glyph glyph-name="N" unicode="N" horiz-adv-x="1544" 
d="M1052 1470h287v-1470h-307l-598 1049l-4 -1049h-287v1470h324l581 -1024z" />
    <glyph glyph-name="O" unicode="O" horiz-adv-x="1548" 
d="M86 737q0 314 139 506q109 152 297 219q135 49 273 49q139 0 268 -47q188 -69 297 -219q139 -192 139 -508q0 -313 -139 -508q-109 -151 -297 -221q-133 -49 -268 -49q-142 0 -271 47q-188 70 -297 219q-141 197 -141 512zM393 737q0 -278 137 -413q105 -103 265 -103
q155 0 260 103q137 135 137 413q0 277 -137 410q-105 102 -260 102q-156 0 -263 -102q-139 -135 -139 -410z" />
    <glyph glyph-name="P" unicode="P" horiz-adv-x="1429" 
d="M462 532v-532h-307v1470h672q215 0 336.5 -125.5t121.5 -345.5q0 -155 -86 -282q-124 -185 -385 -185h-352zM462 786h287q147 0 201 91q28 49 28 139q0 106 -63.5 153.5t-206.5 47.5h-246v-431z" />
    <glyph glyph-name="Q" unicode="Q" horiz-adv-x="1658" 
d="M815 401l160 164l155 -143q66 119 66 315q0 277 -137 410q-105 102 -260 102q-156 0 -263 -102q-139 -135 -139 -410q0 -278 137 -413q105 -103 265 -103q45 0 82.5 9.5t80.5 31.5zM1511 61l-164 -167l-172 167q-94 -57 -208 -84q-82 -18 -168 -18q-142 0 -271 47
q-188 70 -297 219q-141 197 -141 512q0 314 139 506q109 152 297 219q135 49 273 49q139 0 268 -47q188 -69 297 -219q139 -192 139 -508q0 -176 -39 -304t-112 -220z" />
    <glyph glyph-name="R" unicode="R" horiz-adv-x="1544" 
d="M155 0v1470h745q256 0 377 -157q86 -113 86 -256q0 -125 -60.5 -220.5t-168.5 -131.5q104 -46 139 -103q49 -80 49 -270q0 -152 5.5 -211.5t60.5 -79.5v-41h-340q-16 57 -24.5 120.5t-8.5 178.5q0 166 -35 215q-45 64 -207 64h-315v-578h-303zM458 823h361
q122 0 179.5 47.5t57.5 153.5q0 76 -41 125q-55 68 -176 68h-381v-394z" />
    <glyph glyph-name="S" unicode="S" horiz-adv-x="1429" 
d="M81 455h295q0 -90 53 -150q80 -88 258 -88q133 0 207 35q100 47 100 154q0 77 -73 120q-52 31 -193 64l-160 37q-235 53 -321 112q-146 101 -146 318q0 170 105 289q145 165 461 165q301 0 454 -170q119 -131 119 -305h-295q-10 88 -51 135q-74 86 -248 86
q-104 0 -174 -38q-84 -48 -84 -138q0 -75 53 -114q31 -23 103 -41l360 -86q183 -45 269 -117q116 -98 116 -281q0 -223 -147 -346q-164 -137 -434 -137q-355 0 -514 178q-113 127 -113 318z" />
    <glyph glyph-name="T" unicode="T" horiz-adv-x="1314" 
d="M782 1212v-1212h-308v1212h-446v258h1196v-258h-442z" />
    <glyph glyph-name="U" unicode="U" horiz-adv-x="1478" 
d="M1323 1470v-954q0 -285 -162 -424q-154 -133 -444 -133q-125 0 -234 35q-145 47 -233 145q-115 133 -115 357v974h315v-954q0 -145 74 -220t189 -75q151 0 222.5 72t71.5 211v966h316z" />
    <glyph glyph-name="V" unicode="V" horiz-adv-x="1429" 
d="M1007 1470h319l-500 -1470h-290l-496 1470h328l315 -1114z" />
    <glyph glyph-name="W" unicode="W" horiz-adv-x="2007" 
d="M450 0l-418 1470h328l176 -763.5t57 -309.5l33 174q14 80 57 301.5l119 597.5h328l135 -643q45 -223 82 -430l35.5 173.5t64.5 287l146 612.5h311l-414 -1470h-295l-114 555q-31 145 -67 333.5t-48 258.5l-47 -254q-35 -184 -64 -320l-118 -573h-287z" />
    <glyph glyph-name="X" unicode="X" horiz-adv-x="1429" 
d="M859 766l480 -766h-377l-279 504l-295 -504h-360l475 754l-446 716h364l262 -475l271 475h352z" />
    <glyph glyph-name="Y" unicode="Y" horiz-adv-x="1429" 
d="M847 553v-553h-307v557l-508 913h360l308 -639l290 639h349z" />
    <glyph glyph-name="Z" unicode="Z" horiz-adv-x="1314" 
d="M1200 262v-262h-1147v262l758 950h-738v258h1123v-241l-770 -967h774z" />
    <glyph glyph-name="bracketleft" unicode="[" horiz-adv-x="716" 
d="M381 1282v-1487h254v-196h-504v1880h504v-197h-254z" />
    <glyph glyph-name="backslash" unicode="\" horiz-adv-x="602" 
d="M398 -41l-467 1552h242l467 -1552h-242z" />
    <glyph glyph-name="bracketright" unicode="]" horiz-adv-x="716" 
d="M303 -205v1487h-254v197h504v-1880h-504v196h254z" />
    <glyph glyph-name="asciicircum" unicode="^" horiz-adv-x="1245" 
d="M351 664h-225l369 766h204l369 -766h-225l-246 536z" />
    <glyph glyph-name="underscore" unicode="_" 
d="M1139 -258h-1139v102h1139v-102z" />
    <glyph glyph-name="grave" unicode="`" horiz-adv-x="716" 
d="M254 1237l-303 299h319l193 -299h-209z" />
    <glyph glyph-name="a" unicode="a" 
d="M1015 803v-590q0 -88 16.5 -123t49.5 -45v-45h-311q-17 55 -21 72.5t-4 58.5q-66 -70 -127 -104q-98 -56 -225 -56q-137 0 -228 74q-104 86 -104 246q0 151 90 244q80 81 225 104l258 37q58 10 80.5 30.5t22.5 55.5q0 80 -66 108q-43 19 -123 19q-96 0 -139 -51
q-29 -33 -37 -101h-278q22 228 172 316q110 65 315 65q166 0 275 -55q159 -80 159 -260zM737 393v139q-23 -20 -63 -32.5t-134 -27.5t-135 -44q-57 -39 -57 -121q0 -67 45 -102q37 -29 86 -29q100 0 179 59.5t79 157.5z" />
    <glyph glyph-name="b" unicode="b" horiz-adv-x="1314" 
d="M888 537q0 143 -53 231q-64 104 -189 104q-135 0 -196 -108q-50 -88 -50 -244q0 -133 58 -215q67 -96 196 -96q125 0 187 115q47 88 47 213zM413 1470v-520q49 70 108 109q90 59 211 59q189 0 314 -139q137 -154 137 -422q0 -248 -107 -405q-123 -181 -352 -181
q-100 0 -176 37q-90 43 -139 131l-4 -139h-279v1470h287z" />
    <glyph glyph-name="c" unicode="c" 
d="M782 397h291q-17 -145 -103 -254q-135 -172 -397 -172q-277 0 -406 187q-98 141 -98 358q0 279 123 432q135 170 401 170q176 0 303 -80q177 -110 177 -338h-291q-8 66 -45 113q-52 64 -131 64h-13q-123 0 -182 -107q-47 -84 -47 -209q0 -143 29 -219q51 -133 192 -133
q96 0 154 76q43 57 43 112z" />
    <glyph glyph-name="d" unicode="d" horiz-adv-x="1314" 
d="M1130 1470v-1470h-283v139q-51 -86 -137 -127t-182 -41q-228 0 -350 181q-109 159 -109 405q0 270 135 422q125 139 320 139q123 0 209 -57q61 -41 106 -111l4 520h287zM364 537q0 -121 49 -211q64 -117 188 -117q127 0 195 94q59 84 59 217q0 154 -49 242
q-61 110 -196 110q-129 0 -193 -102q-53 -86 -53 -233z" />
    <glyph glyph-name="e" unicode="e" 
d="M774 319h295q-51 -182 -197 -272q-121 -76 -282 -76q-250 0 -385 129q-156 150 -156 469q0 258 145 410q136 139 375 139q205 0 336 -112q176 -152 176 -486v-53h-745q14 -143 75.5 -204.5t178.5 -61.5q65 0 117.5 30.5t66.5 87.5zM344 655h442q-12 121 -80 181
q-57 49 -141 49q-194 0 -221 -230z" />
    <glyph glyph-name="f" unicode="f" horiz-adv-x="716" 
d="M466 885v-885h-286v885h-160v205h160v90q0 161 83 236t236 75l148 -4v-234h-82q-70 0 -84.5 -21.5t-14.5 -96.5v-45h185v-205h-185z" />
    <glyph glyph-name="g" unicode="g" horiz-adv-x="1314" 
d="M859 1090h275v-1033q0 -215 -74 -321q-127 -182 -479 -182q-189 0 -322 77q-153 90 -153 250h311q12 -53 43 -76q45 -34 158 -34q116 0 172.5 60t56.5 194v131l-4 4q-57 -101 -135 -137q-64 -31 -156 -31q-207 0 -334 139q-137 152 -137 426q0 270 135 422
q125 139 320 139q133 0 221 -67q57 -43 98 -121zM376 541q0 -123 49 -203q62 -100 180 -100q131 0 193 100q49 80 49 215q0 139 -61 225q-68 94 -185 94q-92 0 -151 -69q-74 -88 -74 -262z" />
    <glyph glyph-name="h" unicode="h" horiz-adv-x="1314" 
d="M1118 754v-754h-287v664q0 90 -24 135q-43 78 -160 78q-98 0 -161.5 -66t-63.5 -184v-627h-287v1470h287v-520q30 70 119.5 119t199.5 49q168 0 268 -90q109 -98 109 -274z" />
    <glyph glyph-name="i" unicode="i" horiz-adv-x="602" 
d="M143 1090h287v-1090h-287v1090zM430 1487v-266h-287v266h287z" />
    <glyph glyph-name="j" unicode="j" horiz-adv-x="602" 
d="M430 1090v-1205q0 -198 -92 -268q-74 -55 -260 -55h-70v229h49q47 0 66.5 23.5t19.5 74.5v1201h287zM430 1487v-266h-287v266h287z" />
    <glyph glyph-name="k" unicode="k" 
d="M430 344v-344h-287v1470h287v-794l360 414h352l-385 -422l394 -668h-344l-258 467z" />
    <glyph glyph-name="l" unicode="l" horiz-adv-x="602" 
d="M430 1470v-1470h-287v1470h287z" />
    <glyph glyph-name="m" unicode="m" horiz-adv-x="1892" 
d="M1692 754v-754h-287v664q0 112 -42 162.5t-114 50.5q-102 0 -147 -58.5t-45 -163.5v-655h-287v655q0 105 -21 146q-36 76 -151 76q-96 0 -138 -57.5t-42 -155.5v-664h-287v1090h274v-160q43 76 101 121q88 67 215 67q110 0 182 -43q62 -37 121 -129q65 94 133 133t158 39
q168 0 268 -90q109 -98 109 -274z" />
    <glyph glyph-name="n" unicode="n" horiz-adv-x="1314" 
d="M1118 754v-754h-287v664q0 90 -24 135q-43 78 -160 78q-98 0 -161.5 -66t-63.5 -184v-627h-287v1090h274v-160q50 78 103 119q92 69 229 69q168 0 268 -90q109 -98 109 -274z" />
    <glyph glyph-name="o" unicode="o" horiz-adv-x="1245" 
d="M1191 545q0 -281 -168 -434q-151 -140 -389 -140q-235 0 -387 140q-170 155 -170 434q0 280 168 434q151 139 389 139t389 -139q168 -154 168 -434zM896 545q0 135 -47 217q-65 115 -215 115q-147 0 -213 -113q-49 -86 -49 -219q0 -135 47 -217q66 -115 215 -115
q148 0 213 113q49 86 49 219z" />
    <glyph glyph-name="p" unicode="p" horiz-adv-x="1314" 
d="M400 520q0 -133 58 -215q67 -96 196 -96q125 0 187 115q47 88 47 213q0 143 -53 231q-64 104 -189 104q-135 0 -196 -108q-50 -88 -50 -244zM400 1090v-156q58 84 115 125q86 59 217 59q189 0 314 -139q137 -154 137 -422q0 -248 -107 -405q-123 -181 -352 -181
q-131 0 -215 62q-45 33 -92 106l-4 -565h-287v1516h274z" />
    <glyph glyph-name="q" unicode="q" horiz-adv-x="1314" 
d="M855 1090h275v-1516h-287v561q-90 -164 -311 -164q-236 0 -361 189q-102 153 -102 364q0 252 111 410q129 184 368 184q121 0 205 -67q51 -41 98 -121zM364 524q0 -147 61.5 -229t184.5 -82q108 0 174.5 82t66.5 246q0 194 -100 278q-64 53 -145 53q-101 0 -162 -69
q-80 -90 -80 -279z" />
    <glyph glyph-name="r" unicode="r" horiz-adv-x="831" 
d="M131 0v1090h274v-189q66 109 111 150q76 67 193 67q36 0 57 -4v-291q-19 2 -44.5 3t-37.5 1q-152 0 -217 -84q-49 -63 -49 -174v-569h-287z" />
    <glyph glyph-name="s" unicode="s" 
d="M1032 758h-283q-12 69 -41 98q-45 45 -151 45q-105 0 -146 -35q-31 -26 -31 -71q0 -66 177 -103q260 -55 329 -88q179 -82 179 -256q0 -211 -175 -307q-127 -70 -305 -70q-219 0 -354 78q-170 98 -170 299h295q0 -74 51 -112q62 -48 186 -48q101 0 148 41q37 31 37 74
q0 68 -174 107q-267 57 -326 86q-176 82 -176 258q0 145 90 241q115 123 348 123q207 0 326 -63q166 -88 166 -297z" />
    <glyph glyph-name="t" unicode="t" horiz-adv-x="716" 
d="M454 1384v-294h180v-205h-180v-590q0 -55 19.5 -72.5t99.5 -17.5l61 4v-217q-32 -4 -72 -4h-63h-37q-176 0 -241 63q-54 51 -54 174v660h-147v205h147v294h287z" />
    <glyph glyph-name="u" unicode="u" horiz-adv-x="1245" 
d="M1126 1090v-1090h-274v156q-109 -185 -336 -185q-172 0 -269 97q-104 102 -104 305v717h287v-676q0 -115 59 -164q45 -37 129 -37q86 0 146 51q75 66 75 199v627h287z" />
    <glyph glyph-name="v" unicode="v" 
d="M1113 1090l-393 -1090h-303l-389 1090h319l226 -803l233 803h307z" />
    <glyph glyph-name="w" unicode="w" horiz-adv-x="1658" 
d="M1576 1090l-315 -1090h-295l-168 795l-176 -795h-295l-307 1090h307l168 -783l160 783h287l163 -783l177 783h294z" />
    <glyph glyph-name="x" unicode="x" 
d="M737 557l372 -557h-356l-189 328l-188 -328h-344l369 557l-357 533h348l185 -316l180 316h340z" />
    <glyph glyph-name="y" unicode="y" 
d="M1105 1090l-376 -1070q-103 -307 -170.5 -382.5t-251.5 -75.5h-45h-52q-22 4 -30 4v229q12 -4 53 -4q90 0 125 25q47 32 63 139l-401 1135h319l234 -803l229 803h303z" />
    <glyph glyph-name="z" unicode="z" horiz-adv-x="1060" 
d="M962 856l-549 -618h569v-238h-942v225l561 635h-520v230h881v-234z" />
    <glyph glyph-name="braceleft" unicode="{" horiz-adv-x="831" 
d="M749 -221v-180h-172q-110 0 -190 65q-96 78 -96 213v414q0 84 -74 125q-53 30 -119 30v189q66 0 117 29q76 43 76 127v409q0 133 94 211q82 68 192 68h172v-181h-94q-70 0 -96 -43q-19 -30 -19 -92v-401q-14 -113 -98 -172q-57 -39 -135 -49q74 -4 133 -47
q86 -62 100 -179v-401q0 -59 19 -90q26 -45 96 -45h94z" />
    <glyph glyph-name="bar" unicode="|" horiz-adv-x="602" 
d="M172 -41v1552h229v-1552h-229z" />
    <glyph glyph-name="braceright" unicode="}" horiz-adv-x="831" 
d="M700 635v-189q-65 0 -116 -28q-76 -43 -76 -127v-414q0 -133 -94 -211q-82 -67 -193 -67h-172v180h94q70 0 96 43q19 31 19 92v401q14 117 98 177q64 45 135 45q-82 14 -133 51q-86 61 -100 174v401q0 60 -19 90q-26 45 -96 45h-94v181h172q111 0 190 -66q97 -78 97 -213
v-409q0 -84 73 -125q54 -31 119 -31z" />
    <glyph glyph-name="asciitilde" unicode="~" horiz-adv-x="1245" 
d="M998 705l74 -185q-61 -86 -104 -121q-68 -55 -154 -55q-51 0 -97 15.5t-111.5 51t-104.5 50.5q-62 22 -129 22q-47 0 -84 -26q-47 -35 -88 -121l-74 184q41 80 92 121q68 55 162 55q45 0 111 -20q47 -14 118 -45l114 -52.5t95 -25.5q56 0 103 47q24 25 77 105z" />
    <glyph glyph-name="dieresis" unicode="&#xa8;" horiz-adv-x="1024" 
 />
    <glyph glyph-name="copyright" unicode="&#xa9;" horiz-adv-x="1568" 
d="M1537 737q0 -352 -236 -571q-221 -207 -543 -207q-323 0 -544 205q-238 219 -238 573q0 355 238 572q221 202 544 202q324 0 543 -202q236 -217 236 -572zM1311 737q0 260 -160.5 427t-392.5 167q-235 0 -396 -165t-161 -429q0 -260 159 -429t390 -169l8 4
q230 -4 391.5 164t161.5 430zM971 623h185q-25 -152 -127.5 -238t-241.5 -86q-190 0 -308 127t-118 319q0 193 114.5 318t307.5 125q145 0 242.5 -80t121.5 -236h-176q-14 68 -65 102t-123 34q-98 0 -153.5 -70t-55.5 -188q0 -117 58.5 -194t154.5 -77q82 0 133 36t51 108z
" />
    <glyph glyph-name="registered" unicode="&#xae;" horiz-adv-x="1568" 
d="M627 672v-353h-176v836h311q170 0 250 -53q90 -62 90 -201q0 -110 -54 -163.5t-146 -53.5l213 -365h-209l-193 353h-86zM627 811h160q66 0 92 18q35 25 35 93q0 43 -35 66.5t-125 23.5h-127v-201zM1532 737q0 -354 -233 -573q-219 -205 -541 -205q-325 0 -546 205
q-236 217 -236 573q0 353 236 570q221 204 546 204q324 0 541 -202q233 -217 233 -572zM1311 737q0 260 -160.5 427t-392.5 167q-235 0 -396 -165t-161 -429q0 -260 159 -429t390 -169l8 4q230 -4 391.5 164t161.5 430z" />
    <glyph glyph-name="acute" unicode="&#xb4;" horiz-adv-x="1024" 
 />
    <glyph glyph-name="paragraph" unicode="&#xb6;" horiz-adv-x="1024" 
d="M929 1435v-70h-127v-1365h-82v1365h-166v-1365h-84v738q-174 8 -275.5 102.5t-101.5 245.5q0 157 107.5 253t285.5 96h443z" />
    <glyph glyph-name="onequarter" unicode="&#xbc;" horiz-adv-x="1777" 
d="M1044 324h238l4 372zM1466 868v-540h103v-144h-103v-184h-192v184h-377v152l348 532h221zM278 -41l877 1495h160l-873 -1495h-164zM53 1176v127h29q123 0 182 51q47 41 47 100h176v-872h-209v594h-225z" />
    <glyph glyph-name="onehalf" unicode="&#xbd;" horiz-adv-x="1777" 
d="M278 -41l877 1495h160l-873 -1495h-164zM53 1176v127h29q123 0 182 51q47 41 47 100h176v-872h-209v594h-225zM1171 565h-180q0 185 123 262q78 50 188 50q142 0 233 -74t91 -205q0 -102 -60 -180q-40 -56 -122 -105t-138 -90q-41 -30 -61 -55h381v-168h-643q0 94 35 164
q49 98 174 184q116 78 149 105q88 71 88 153v8q0 33 -28 62q-37 37 -91 37q-86 0 -118 -56q-21 -34 -21 -92z" />
    <glyph glyph-name="threequarters" unicode="&#xbe;" horiz-adv-x="1777" 
d="M1109 328h230l4 360zM1535 868v-540h103v-144h-103v-184h-196v184h-373v152l348 532h221zM368 -41l876 1495h160l-872 -1495h-164zM32 848h184q0 -55 21 -88q33 -51 114 -51q64 0 98 28.5t34 98.5q0 92 -99 114q-37 8 -102 8v132h29q67 0 96 12q55 24 55 94q0 41 -16 66
q-27 41 -95 41q-63 0 -94.5 -34t-31.5 -93h-177q0 127 80 202.5t236 75.5q114 0 192 -51q99 -64 99 -191q0 -63 -33 -106t-78 -62q68 -24 103.5 -78.5t35.5 -129.5q0 -123 -89 -201t-230 -78q-121 0 -199 41q-133 72 -133 250z" />
    <glyph glyph-name="Agrave" unicode="&#xc0;" horiz-adv-x="1454" 
d="M430 303l-102 -303h-324l524 1470h357l516 -1470h-332l-94 303h-545zM512 557h377l-185 582zM592 1618l-303 299h315l193 -299h-205z" />
    <glyph glyph-name="Aacute" unicode="&#xc1;" horiz-adv-x="1454" 
d="M430 303l-102 -303h-324l524 1470h357l516 -1470h-332l-94 303h-545zM512 557h377l-185 582zM1096 1917l-304 -299h-204l192 299h316z" />
    <glyph glyph-name="uni1EA2" unicode="&#x1ea2;" horiz-adv-x="1454" 
d="M430 303l-102 -303h-324l524 1470h357l516 -1470h-332l-94 303h-545zM512 557h377l-185 582zM781 1606h-146q0 95 17.5 144t75 89.5t57.5 83.5t-22.5 61t-52.5 18q-47 0 -65 -26t-18 -81l-160 -3q0 133 77 194q65 52 158 52q82 0 144 -32q107 -55 107 -178
q0 -58 -27.5 -97.5t-86 -81t-58.5 -143.5z" />
    <glyph glyph-name="Atilde" unicode="&#xc3;" horiz-adv-x="1454" 
d="M430 303l-102 -303h-324l524 1470h357l516 -1470h-332l-94 303h-545zM512 557h377l-185 582zM975 1892h135q-12 -61 -31 -104q-61 -141 -194 -141q-35 0 -70 8t-85 24.5l-101 32.5q-27 8 -43 8q-50 0 -76 -34q-17 -23 -23 -56h-131q8 45 21.5 81t43 79t68.5 65
q50 29 117 29q47 0 148 -41q92 -33 127 -33q43 0 64.5 24t29.5 58z" />
    <glyph glyph-name="uni1EA0" unicode="&#x1ea0;" horiz-adv-x="1454" 
d="M430 303l-102 -303h-324l524 1470h357l516 -1470h-332l-94 303h-545zM512 557h377l-185 582zM831 -123v-237h-258v237h258z" />
    <glyph glyph-name="Acircumflex" unicode="&#xc2;" horiz-adv-x="1454" 
d="M430 303l-102 -303h-324l524 1470h357l516 -1470h-332l-94 303h-545zM512 557h377l-185 582zM829 1917l234 -299h-230l-131 168l-131 -168h-229l233 299h254z" />
    <glyph glyph-name="uni1EA6" unicode="&#x1ea6;" horiz-adv-x="1454" 
d="M430 303l-102 -303h-324l524 1470h357l516 -1470h-332l-94 303h-545zM512 557h377l-185 582zM971 1867l-303 299h315l193 -299h-205zM829 1917l234 -299h-230l-131 168l-131 -168h-229l233 299h254z" />
    <glyph glyph-name="uni1EA4" unicode="&#x1ea4;" horiz-adv-x="1454" 
d="M430 303l-102 -303h-324l524 1470h357l516 -1470h-332l-94 303h-545zM512 557h377l-185 582zM1438 2166l-304 -299h-204l192 299h316zM829 1917l234 -299h-230l-131 168l-131 -168h-229l233 299h254z" />
    <glyph glyph-name="uni1EA8" unicode="&#x1ea8;" horiz-adv-x="1454" 
d="M430 303l-102 -303h-324l524 1470h357l516 -1470h-332l-94 303h-545zM512 557h377l-185 582zM1067 1865h-146q0 95 17.5 144t75 89.5t57.5 83.5t-22.5 61t-52.5 18q-47 0 -65 -26t-18 -81l-160 -3q0 133 77 194q65 52 158 52q82 0 144 -32q107 -55 107 -178
q0 -58 -27.5 -97.5t-86 -81t-58.5 -143.5zM829 1917l234 -299h-230l-131 168l-131 -168h-229l233 299h254z" />
    <glyph glyph-name="uni1EAA" unicode="&#x1eaa;" horiz-adv-x="1454" 
d="M430 303l-102 -303h-324l524 1470h357l516 -1470h-332l-94 303h-545zM512 557h377l-185 582zM1012 2233h135q-12 -61 -31 -104q-61 -141 -194 -141q-35 0 -70 8t-85 24.5l-101 32.5q-27 8 -43 8q-50 0 -76 -34q-17 -23 -23 -56h-131q8 45 21.5 81t43 79t68.5 65
q50 29 117 29q47 0 148 -41q92 -33 127 -33q43 0 64.5 24t29.5 58zM829 1917l234 -299h-230l-131 168l-131 -168h-229l233 299h254z" />
    <glyph glyph-name="uni1EAC" unicode="&#x1eac;" horiz-adv-x="1454" 
d="M430 303l-102 -303h-324l524 1470h357l516 -1470h-332l-94 303h-545zM512 557h377l-185 582zM831 -123v-237h-258v237h258zM829 1917l234 -299h-230l-131 168l-131 -168h-229l233 299h254z" />
    <glyph glyph-name="Abreve" unicode="&#x102;" horiz-adv-x="1454" 
d="M430 303l-102 -303h-324l524 1470h357l516 -1470h-332l-94 303h-545zM512 557h377l-185 582zM913 1913h135q-14 -148 -116 -227q-94 -72 -248 -72q-178 0 -264 119q-54 73 -64 180h135q15 -64 41 -90q52 -54 164 -54q88 0 135 23q68 33 82 121z" />
    <glyph glyph-name="uni1EB0" unicode="&#x1eb0;" horiz-adv-x="1454" 
d="M430 303l-102 -303h-324l524 1470h357l516 -1470h-332l-94 303h-545zM512 557h377l-185 582zM648 1923l-303 299h315l193 -299h-205zM913 1913h135q-14 -148 -116 -227q-94 -72 -248 -72q-178 0 -264 119q-54 73 -64 180h135q15 -64 41 -90q52 -54 164 -54q88 0 135 23
q68 33 82 121z" />
    <glyph glyph-name="uni1EAE" unicode="&#x1eae;" horiz-adv-x="1454" 
d="M430 303l-102 -303h-324l524 1470h357l516 -1470h-332l-94 303h-545zM512 557h377l-185 582zM1096 2213l-304 -299h-204l192 299h316zM913 1913h135q-14 -148 -116 -227q-94 -72 -248 -72q-178 0 -264 119q-54 73 -64 180h135q15 -64 41 -90q52 -54 164 -54q88 0 135 23
q68 33 82 121z" />
    <glyph glyph-name="uni1EB2" unicode="&#x1eb2;" horiz-adv-x="1454" 
d="M430 303l-102 -303h-324l524 1470h357l516 -1470h-332l-94 303h-545zM512 557h377l-185 582zM790 1911h-146q0 95 17.5 144t75 89.5t57.5 83.5t-22.5 61t-52.5 18q-47 0 -65 -26t-18 -81l-160 -3q0 133 77 194q65 52 158 52q82 0 144 -32q107 -55 107 -178
q0 -58 -27.5 -97.5t-86 -81t-58.5 -143.5zM913 1913h135q-14 -148 -116 -227q-94 -72 -248 -72q-178 0 -264 119q-54 73 -64 180h135q15 -64 41 -90q52 -54 164 -54q88 0 135 23q68 33 82 121z" />
    <glyph glyph-name="uni1EB4" unicode="&#x1eb4;" horiz-adv-x="1454" 
d="M430 303l-102 -303h-324l524 1470h357l516 -1470h-332l-94 303h-545zM512 557h377l-185 582zM1012 2233h135q-12 -61 -31 -104q-61 -141 -194 -141q-35 0 -70 8t-85 24.5l-101 32.5q-27 8 -43 8q-50 0 -76 -34q-17 -23 -23 -56h-131q8 45 21.5 81t43 79t68.5 65
q50 29 117 29q47 0 148 -41q92 -33 127 -33q43 0 64.5 24t29.5 58zM913 1913h135q-14 -148 -116 -227q-94 -72 -248 -72q-178 0 -264 119q-54 73 -64 180h135q15 -64 41 -90q52 -54 164 -54q88 0 135 23q68 33 82 121z" />
    <glyph glyph-name="uni1EB6" unicode="&#x1eb6;" horiz-adv-x="1454" 
d="M430 303l-102 -303h-324l524 1470h357l516 -1470h-332l-94 303h-545zM512 557h377l-185 582zM831 -123v-237h-258v237h258zM913 1913h135q-14 -148 -116 -227q-94 -72 -248 -72q-178 0 -264 119q-54 73 -64 180h135q15 -64 41 -90q52 -54 164 -54q88 0 135 23
q68 33 82 121z" />
    <glyph glyph-name="Egrave" unicode="&#xc8;" horiz-adv-x="1429" 
d="M1236 1470v-258h-778v-311h717v-258h-717v-381h815v-262h-1118v1470h1081zM637 1618l-303 299h316l192 -299h-205z" />
    <glyph glyph-name="Eacute" unicode="&#xc9;" horiz-adv-x="1429" 
d="M1236 1470v-258h-778v-311h717v-258h-717v-381h815v-262h-1118v1470h1081zM1055 1917l-303 -299h-205l193 299h315z" />
    <glyph glyph-name="uni1EBA" unicode="&#x1eba;" horiz-adv-x="1429" 
d="M1236 1470v-258h-778v-311h717v-258h-717v-381h815v-262h-1118v1470h1081zM785 1606h-146q0 95 18 144t75 89.5t57 83.5t-22 61t-52 18q-48 0 -66 -26t-18 -81l-160 -3q0 133 78 194q65 52 158 52q81 0 143 -32q107 -55 107 -178q0 -58 -27.5 -97.5t-86 -81t-58.5 -143.5
z" />
    <glyph glyph-name="uni1EBC" unicode="&#x1ebc;" horiz-adv-x="1429" 
d="M1236 1470v-258h-778v-311h717v-258h-717v-381h815v-262h-1118v1470h1081zM974 1892h135q-12 -61 -30 -104q-62 -141 -195 -141q-35 0 -69.5 8t-85 24.5l-101.5 32.5q-27 8 -43 8q-49 0 -76 -34q-16 -23 -22 -56h-131q8 45 21.5 81t43 79t68.5 65q49 29 117 29
q47 0 147 -41q92 -33 127 -33q43 0 64.5 24t29.5 58z" />
    <glyph glyph-name="uni1EB8" unicode="&#x1eb8;" horiz-adv-x="1429" 
d="M1236 1470v-258h-778v-311h717v-258h-717v-381h815v-262h-1118v1470h1081zM831 -123v-237h-258v237h258z" />
    <glyph glyph-name="Ecircumflex" unicode="&#xca;" horiz-adv-x="1429" 
d="M1236 1470v-258h-778v-311h717v-258h-717v-381h815v-262h-1118v1470h1081zM841 1917l234 -299h-230l-131 168l-131 -168h-229l233 299h254z" />
    <glyph glyph-name="uni1EC0" unicode="&#x1ec0;" horiz-adv-x="1429" 
d="M1236 1470v-258h-778v-311h717v-258h-717v-381h815v-262h-1118v1470h1081zM997 1867l-303 299h316l192 -299h-205zM841 1917l234 -299h-230l-131 168l-131 -168h-229l233 299h254z" />
    <glyph glyph-name="uni1EBE" unicode="&#x1ebe;" horiz-adv-x="1429" 
d="M1236 1470v-258h-778v-311h717v-258h-717v-381h815v-262h-1118v1470h1081zM1424 2167l-303 -299h-205l193 299h315zM841 1917l234 -299h-230l-131 168l-131 -168h-229l233 299h254z" />
    <glyph glyph-name="uni1EC2" unicode="&#x1ec2;" horiz-adv-x="1429" 
d="M1236 1470v-258h-778v-311h717v-258h-717v-381h815v-262h-1118v1470h1081zM1075 1843h-146q0 95 18 144t75 89.5t57 83.5t-22 61t-52 18q-48 0 -66 -26t-18 -81l-160 -3q0 133 78 194q65 52 158 52q81 0 143 -32q107 -55 107 -178q0 -58 -27.5 -97.5t-86 -81
t-58.5 -143.5zM841 1917l234 -299h-230l-131 168l-131 -168h-229l233 299h254z" />
    <glyph glyph-name="uni1EC4" unicode="&#x1ec4;" horiz-adv-x="1429" 
d="M1236 1470v-258h-778v-311h717v-258h-717v-381h815v-262h-1118v1470h1081zM1029 2224h135q-12 -61 -30 -104q-62 -141 -195 -141q-35 0 -69.5 8t-85 24.5l-101.5 32.5q-27 8 -43 8q-49 0 -76 -34q-16 -23 -22 -56h-131q8 45 21.5 81t43 79t68.5 65q49 29 117 29
q47 0 147 -41q92 -33 127 -33q43 0 64.5 24t29.5 58zM841 1917l234 -299h-230l-131 168l-131 -168h-229l233 299h254z" />
    <glyph glyph-name="uni1EC6" unicode="&#x1ec6;" horiz-adv-x="1429" 
d="M1236 1470v-258h-778v-311h717v-258h-717v-381h815v-262h-1118v1470h1081zM831 -123v-237h-258v237h258zM841 1917l234 -299h-230l-131 168l-131 -168h-229l233 299h254z" />
    <glyph glyph-name="Igrave" unicode="&#xcc;" horiz-adv-x="602" 
d="M439 1470v-1470h-308v1470h308zM231 1618l-303 299h315l193 -299h-205z" />
    <glyph glyph-name="Iacute" unicode="&#xcd;" horiz-adv-x="602" 
d="M438 1470v-1470h-307v1470h307zM677 1917l-303 -299h-205l192 299h316z" />
    <glyph glyph-name="uni1EC8" unicode="&#x1ec8;" horiz-adv-x="602" 
d="M438 1470v-1470h-307v1470h307zM347 1606h-146q0 95 17.5 144t75 89.5t57.5 83.5t-22.5 61t-52.5 18q-47 0 -65 -26t-18 -81l-160 -3q0 133 77 194q65 52 158 52q82 0 144 -32q107 -55 107 -178q0 -58 -27.5 -97.5t-86 -81t-58.5 -143.5z" />
    <glyph glyph-name="Itilde" unicode="&#x128;" horiz-adv-x="602" 
d="M438 1470v-1470h-307v1470h307zM549 1892h136q-13 -61 -31 -104q-61 -141 -195 -141q-34 0 -69 8t-85 24.5l-102 32.5q-26 8 -43 8q-49 0 -75 -34q-17 -23 -23 -56h-131q8 45 21.5 81t43 79t68.5 65q49 29 117 29q47 0 147 -41q92 -33 127 -33q43 0 64.5 24t29.5 58z" />
    <glyph glyph-name="uni1ECA" unicode="&#x1eca;" horiz-adv-x="602" 
d="M438 1470v-1470h-307v1470h307zM414 -123v-237h-258v237h258z" />
    <glyph glyph-name="Ograve" unicode="&#xd2;" horiz-adv-x="1548" 
d="M86 737q0 314 139 506q109 152 297 219q135 49 273 49q139 0 268 -47q188 -69 297 -219q139 -192 139 -508q0 -313 -139 -508q-109 -151 -297 -221q-133 -49 -268 -49q-142 0 -271 47q-188 70 -297 219q-141 197 -141 512zM393 737q0 -278 137 -413q105 -103 265 -103
q155 0 260 103q137 135 137 413q0 277 -137 410q-105 102 -260 102q-156 0 -263 -102q-139 -135 -139 -410zM757 1618l-303 299h315l193 -299h-205z" />
    <glyph glyph-name="Oacute" unicode="&#xd3;" horiz-adv-x="1548" 
d="M86 737q0 314 139 506q109 152 297 219q135 49 273 49q139 0 268 -47q188 -69 297 -219q139 -192 139 -508q0 -313 -139 -508q-109 -151 -297 -221q-133 -49 -268 -49q-142 0 -271 47q-188 70 -297 219q-141 197 -141 512zM393 737q0 -278 137 -413q105 -103 265 -103
q155 0 260 103q137 135 137 413q0 277 -137 410q-105 102 -260 102q-156 0 -263 -102q-139 -135 -139 -410zM1055 1917l-303 -299h-205l193 299h315z" />
    <glyph glyph-name="uni1ECE" unicode="&#x1ece;" horiz-adv-x="1548" 
d="M86 737q0 314 139 506q109 152 297 219q135 49 273 49q139 0 268 -47q188 -69 297 -219q139 -192 139 -508q0 -313 -139 -508q-109 -151 -297 -221q-133 -49 -268 -49q-142 0 -271 47q-188 70 -297 219q-141 197 -141 512zM393 737q0 -278 137 -413q105 -103 265 -103
q155 0 260 103q137 135 137 413q0 277 -137 410q-105 102 -260 102q-156 0 -263 -102q-139 -135 -139 -410zM863 1606h-145q0 95 17.5 144t75 89.5t57.5 83.5t-22.5 61t-52.5 18q-47 0 -65.5 -26t-18.5 -81l-159 -3q0 133 77 194q65 52 158 52q82 0 144 -32
q106 -55 106 -178q0 -58 -27.5 -97.5t-86 -81t-58.5 -143.5z" />
    <glyph glyph-name="Otilde" unicode="&#xd5;" horiz-adv-x="1548" 
d="M86 737q0 314 139 506q109 152 297 219q135 49 273 49q139 0 268 -47q188 -69 297 -219q139 -192 139 -508q0 -313 -139 -508q-109 -151 -297 -221q-133 -49 -268 -49q-142 0 -271 47q-188 70 -297 219q-141 197 -141 512zM393 737q0 -278 137 -413q105 -103 265 -103
q155 0 260 103q137 135 137 413q0 277 -137 410q-105 102 -260 102q-156 0 -263 -102q-139 -135 -139 -410zM1034 1892h135q-12 -61 -30 -104q-62 -141 -195 -141q-35 0 -69.5 8t-85 24.5l-101.5 32.5q-27 8 -43 8q-49 0 -76 -34q-16 -23 -22 -56h-131q8 45 21.5 81t43 79
t68.5 65q49 29 117 29q47 0 147 -41q92 -33 127 -33q43 0 64.5 24t29.5 58z" />
    <glyph glyph-name="uni1ECC" unicode="&#x1ecc;" horiz-adv-x="1548" 
d="M86 737q0 314 139 506q109 152 297 219q135 49 273 49q139 0 268 -47q188 -69 297 -219q139 -192 139 -508q0 -313 -139 -508q-109 -151 -297 -221q-133 -49 -268 -49q-142 0 -271 47q-188 70 -297 219q-141 197 -141 512zM393 737q0 -278 137 -413q105 -103 265 -103
q155 0 260 103q137 135 137 413q0 277 -137 410q-105 102 -260 102q-156 0 -263 -102q-139 -135 -139 -410zM922 -123v-237h-258v237h258z" />
    <glyph glyph-name="Ocircumflex" unicode="&#xd4;" horiz-adv-x="1548" 
d="M86 737q0 314 139 506q109 152 297 219q135 49 273 49q139 0 268 -47q188 -69 297 -219q139 -192 139 -508q0 -313 -139 -508q-109 -151 -297 -221q-133 -49 -268 -49q-142 0 -271 47q-188 70 -297 219q-141 197 -141 512zM393 737q0 -278 137 -413q105 -103 265 -103
q155 0 260 103q137 135 137 413q0 277 -137 410q-105 102 -260 102q-156 0 -263 -102q-139 -135 -139 -410zM920 1917l233 -299h-229l-131 168l-132 -168h-229l234 299h254z" />
    <glyph glyph-name="uni1ED2" unicode="&#x1ed2;" horiz-adv-x="1548" 
d="M86 737q0 314 139 506q109 152 297 219q135 49 273 49q139 0 268 -47q188 -69 297 -219q139 -192 139 -508q0 -313 -139 -508q-109 -151 -297 -221q-133 -49 -268 -49q-142 0 -271 47q-188 70 -297 219q-141 197 -141 512zM393 737q0 -278 137 -413q105 -103 265 -103
q155 0 260 103q137 135 137 413q0 277 -137 410q-105 102 -260 102q-156 0 -263 -102q-139 -135 -139 -410zM1053 1867l-303 299h315l193 -299h-205zM920 1917l233 -299h-229l-131 168l-132 -168h-229l234 299h254z" />
    <glyph glyph-name="uni1ED0" unicode="&#x1ed0;" horiz-adv-x="1548" 
d="M86 737q0 314 139 506q109 152 297 219q135 49 273 49q139 0 268 -47q188 -69 297 -219q139 -192 139 -508q0 -313 -139 -508q-109 -151 -297 -221q-133 -49 -268 -49q-142 0 -271 47q-188 70 -297 219q-141 197 -141 512zM393 737q0 -278 137 -413q105 -103 265 -103
q155 0 260 103q137 135 137 413q0 277 -137 410q-105 102 -260 102q-156 0 -263 -102q-139 -135 -139 -410zM1508 2166l-303 -299h-205l193 299h315zM920 1917l233 -299h-229l-131 168l-132 -168h-229l234 299h254z" />
    <glyph glyph-name="uni1ED4" unicode="&#x1ed4;" horiz-adv-x="1548" 
d="M86 737q0 314 139 506q109 152 297 219q135 49 273 49q139 0 268 -47q188 -69 297 -219q139 -192 139 -508q0 -313 -139 -508q-109 -151 -297 -221q-133 -49 -268 -49q-142 0 -271 47q-188 70 -297 219q-141 197 -141 512zM393 737q0 -278 137 -413q105 -103 265 -103
q155 0 260 103q137 135 137 413q0 277 -137 410q-105 102 -260 102q-156 0 -263 -102q-139 -135 -139 -410zM1167 1846h-145q0 95 17.5 144t75 89.5t57.5 83.5t-22.5 61t-52.5 18q-47 0 -65.5 -26t-18.5 -81l-159 -3q0 133 77 194q65 52 158 52q82 0 144 -32
q106 -55 106 -178q0 -58 -27.5 -97.5t-86 -81t-58.5 -143.5zM920 1917l233 -299h-229l-131 168l-132 -168h-229l234 299h254z" />
    <glyph glyph-name="uni1ED6" unicode="&#x1ed6;" horiz-adv-x="1548" 
d="M86 737q0 314 139 506q109 152 297 219q135 49 273 49q139 0 268 -47q188 -69 297 -219q139 -192 139 -508q0 -313 -139 -508q-109 -151 -297 -221q-133 -49 -268 -49q-142 0 -271 47q-188 70 -297 219q-141 197 -141 512zM393 737q0 -278 137 -413q105 -103 265 -103
q155 0 260 103q137 135 137 413q0 277 -137 410q-105 102 -260 102q-156 0 -263 -102q-139 -135 -139 -410zM1099 2215h135q-12 -61 -30 -104q-62 -141 -195 -141q-35 0 -69.5 8t-85 24.5l-101.5 32.5q-27 8 -43 8q-49 0 -76 -34q-16 -23 -22 -56h-131q8 45 21.5 81t43 79
t68.5 65q49 29 117 29q47 0 147 -41q92 -33 127 -33q43 0 64.5 24t29.5 58zM920 1917l233 -299h-229l-131 168l-132 -168h-229l234 299h254z" />
    <glyph glyph-name="uni1ED8" unicode="&#x1ed8;" horiz-adv-x="1548" 
d="M86 737q0 314 139 506q109 152 297 219q135 49 273 49q139 0 268 -47q188 -69 297 -219q139 -192 139 -508q0 -313 -139 -508q-109 -151 -297 -221q-133 -49 -268 -49q-142 0 -271 47q-188 70 -297 219q-141 197 -141 512zM393 737q0 -278 137 -413q105 -103 265 -103
q155 0 260 103q137 135 137 413q0 277 -137 410q-105 102 -260 102q-156 0 -263 -102q-139 -135 -139 -410zM922 -123v-237h-258v237h258zM920 1917l233 -299h-229l-131 168l-132 -168h-229l234 299h254z" />
    <glyph glyph-name="Ugrave" unicode="&#xd9;" horiz-adv-x="1478" 
d="M1323 1470v-954q0 -285 -162 -424q-154 -133 -444 -133q-125 0 -234 35q-145 47 -233 145q-115 133 -115 357v974h315v-954q0 -145 74 -220t189 -75q151 0 222.5 72t71.5 211v966h316zM677 1618l-303 299h315l193 -299h-205z" />
    <glyph glyph-name="Uacute" unicode="&#xda;" horiz-adv-x="1478" 
d="M1323 1470v-954q0 -285 -162 -424q-154 -133 -444 -133q-125 0 -234 35q-145 47 -233 145q-115 133 -115 357v974h315v-954q0 -145 74 -220t189 -75q151 0 222.5 72t71.5 211v966h316zM1119 1917l-303 -299h-205l192 299h316z" />
    <glyph glyph-name="uni1EE6" unicode="&#x1ee6;" horiz-adv-x="1478" 
d="M1323 1470v-954q0 -285 -162 -424q-154 -133 -444 -133q-125 0 -234 35q-145 47 -233 145q-115 133 -115 357v974h315v-954q0 -145 74 -220t189 -75q151 0 222.5 72t71.5 211v966h316zM817 1606h-145q0 95 17.5 144t75 89.5t57.5 83.5t-22.5 61t-52.5 18q-48 0 -66 -26
t-18 -81l-159 -3q0 133 77 194q65 52 158 52q81 0 144 -32q106 -55 106 -178q0 -58 -27.5 -97.5t-86 -81t-58.5 -143.5z" />
    <glyph glyph-name="Utilde" unicode="&#x168;" horiz-adv-x="1478" 
d="M1323 1470v-954q0 -285 -162 -424q-154 -133 -444 -133q-125 0 -234 35q-145 47 -233 145q-115 133 -115 357v974h315v-954q0 -145 74 -220t189 -75q151 0 222.5 72t71.5 211v966h316zM1034 1892h135q-12 -61 -30 -104q-62 -141 -195 -141q-35 0 -69.5 8t-85 24.5
l-101.5 32.5q-27 8 -43 8q-49 0 -76 -34q-16 -23 -22 -56h-131q8 45 21 81t43 79t69 65q49 29 116 29q48 0 148 -41q92 -33 127 -33q43 0 64.5 24t29.5 58z" />
    <glyph glyph-name="uni1EE4" unicode="&#x1ee4;" horiz-adv-x="1478" 
d="M1323 1470v-954q0 -285 -162 -424q-154 -133 -444 -133q-125 0 -234 35q-145 47 -233 145q-115 133 -115 357v974h315v-954q0 -145 74 -220t189 -75q151 0 222.5 72t71.5 211v966h316zM858 -123v-237h-258v237h258z" />
    <glyph glyph-name="Uhorn" unicode="&#x1af;" horiz-adv-x="1478" 
d="M1323 1409q41 23 51 50.5t10 80.5h-106v168h241v-172q0 -152 -196 -250v-770q0 -285 -162 -424q-154 -133 -444 -133q-125 0 -234 35q-145 47 -233 145q-115 133 -115 357v974h315v-954q0 -145 74 -220t189 -75q151 0 222.5 72t71.5 211v966h316v-61z" />
    <glyph glyph-name="uni1EEA" unicode="&#x1eea;" horiz-adv-x="1478" 
d="M677 1618l-303 299h315l193 -299h-205zM1323 1409q41 23 51 50.5t10 80.5h-106v168h241v-172q0 -152 -196 -250v-770q0 -285 -162 -424q-154 -133 -444 -133q-125 0 -234 35q-145 47 -233 145q-115 133 -115 357v974h315v-954q0 -145 74 -220t189 -75q151 0 222.5 72
t71.5 211v966h316v-61z" />
    <glyph glyph-name="uni1EE8" unicode="&#x1ee8;" horiz-adv-x="1478" 
d="M1119 1917l-303 -299h-205l192 299h316zM1323 1409q41 23 51 50.5t10 80.5h-106v168h241v-172q0 -152 -196 -250v-770q0 -285 -162 -424q-154 -133 -444 -133q-125 0 -234 35q-145 47 -233 145q-115 133 -115 357v974h315v-954q0 -145 74 -220t189 -75q151 0 222.5 72
t71.5 211v966h316v-61z" />
    <glyph glyph-name="uni1EEC" unicode="&#x1eec;" horiz-adv-x="1478" 
d="M817 1606h-145q0 95 17.5 144t75 89.5t57.5 83.5t-22.5 61t-52.5 18q-48 0 -66 -26t-18 -81l-159 -3q0 133 77 194q65 52 158 52q81 0 144 -32q106 -55 106 -178q0 -58 -27.5 -97.5t-86 -81t-58.5 -143.5zM1323 1409q41 23 51 50.5t10 80.5h-106v168h241v-172
q0 -152 -196 -250v-770q0 -285 -162 -424q-154 -133 -444 -133q-125 0 -234 35q-145 47 -233 145q-115 133 -115 357v974h315v-954q0 -145 74 -220t189 -75q151 0 222.5 72t71.5 211v966h316v-61z" />
    <glyph glyph-name="uni1EEE" unicode="&#x1eee;" horiz-adv-x="1478" 
d="M1034 1892h135q-12 -61 -30 -104q-62 -141 -195 -141q-35 0 -69.5 8t-85 24.5l-101.5 32.5q-27 8 -43 8q-49 0 -76 -34q-16 -23 -22 -56h-131q8 45 21 81t43 79t69 65q49 29 116 29q48 0 148 -41q92 -33 127 -33q43 0 64.5 24t29.5 58zM1323 1409q41 23 51 50.5t10 80.5
h-106v168h241v-172q0 -152 -196 -250v-770q0 -285 -162 -424q-154 -133 -444 -133q-125 0 -234 35q-145 47 -233 145q-115 133 -115 357v974h315v-954q0 -145 74 -220t189 -75q151 0 222.5 72t71.5 211v966h316v-61z" />
    <glyph glyph-name="uni1EF0" unicode="&#x1ef0;" horiz-adv-x="1478" 
d="M858 -123v-237h-258v237h258zM1323 1409q41 23 51 50.5t10 80.5h-106v168h241v-172q0 -152 -196 -250v-770q0 -285 -162 -424q-154 -133 -444 -133q-125 0 -234 35q-145 47 -233 145q-115 133 -115 357v974h315v-954q0 -145 74 -220t189 -75q151 0 222.5 72t71.5 211v966
h316v-61z" />
    <glyph glyph-name="Ohorn" unicode="&#x1a0;" horiz-adv-x="1548" 
d="M1249 1364q43 22 66.5 72.5t23.5 99.5h-106v168h242v-172q0 -84 -25 -135q-33 -68 -119 -111q82 -90 125 -224t43 -325q0 -313 -139 -508q-109 -151 -297 -221q-133 -49 -268 -49q-142 0 -271 47q-188 70 -297 219q-141 197 -141 512q0 314 139 506q109 152 297 219
q135 49 273 49q108 0 204 -24q142 -37 250 -123zM393 737q0 -278 137 -413q105 -103 265 -103q155 0 260 103q137 135 137 413q0 277 -137 410q-105 102 -260 102q-156 0 -263 -102q-139 -135 -139 -410z" />
    <glyph glyph-name="uni1EDC" unicode="&#x1edc;" horiz-adv-x="1548" 
d="M393 737q0 -278 137 -413q105 -103 265 -103q155 0 260 103q137 135 137 413q0 277 -137 410q-105 102 -260 102q-156 0 -263 -102q-139 -135 -139 -410zM757 1618l-303 299h315l193 -299h-205zM1249 1364q43 22 66.5 72.5t23.5 99.5h-106v168h242v-172q0 -84 -25 -135
q-33 -68 -119 -111q82 -90 125 -224t43 -325q0 -313 -139 -508q-109 -151 -297 -221q-133 -49 -268 -49q-142 0 -271 47q-188 70 -297 219q-141 197 -141 512q0 314 139 506q109 152 297 219q135 49 273 49q108 0 204 -24q142 -37 250 -123z" />
    <glyph glyph-name="uni1EDA" unicode="&#x1eda;" horiz-adv-x="1548" 
d="M393 737q0 -278 137 -413q105 -103 265 -103q155 0 260 103q137 135 137 413q0 277 -137 410q-105 102 -260 102q-156 0 -263 -102q-139 -135 -139 -410zM1055 1917l-303 -299h-205l193 299h315zM1249 1364q43 22 66.5 72.5t23.5 99.5h-106v168h242v-172q0 -84 -25 -135
q-33 -68 -119 -111q82 -90 125 -224t43 -325q0 -313 -139 -508q-109 -151 -297 -221q-133 -49 -268 -49q-142 0 -271 47q-188 70 -297 219q-141 197 -141 512q0 314 139 506q109 152 297 219q135 49 273 49q108 0 204 -24q142 -37 250 -123z" />
    <glyph glyph-name="uni1EDE" unicode="&#x1ede;" horiz-adv-x="1548" 
d="M393 737q0 -278 137 -413q105 -103 265 -103q155 0 260 103q137 135 137 413q0 277 -137 410q-105 102 -260 102q-156 0 -263 -102q-139 -135 -139 -410zM863 1606h-145q0 95 17.5 144t75 89.5t57.5 83.5t-22.5 61t-52.5 18q-47 0 -65.5 -26t-18.5 -81l-159 -3
q0 133 77 194q65 52 158 52q82 0 144 -32q106 -55 106 -178q0 -58 -27.5 -97.5t-86 -81t-58.5 -143.5zM1249 1364q43 22 66.5 72.5t23.5 99.5h-106v168h242v-172q0 -84 -25 -135q-33 -68 -119 -111q82 -90 125 -224t43 -325q0 -313 -139 -508q-109 -151 -297 -221
q-133 -49 -268 -49q-142 0 -271 47q-188 70 -297 219q-141 197 -141 512q0 314 139 506q109 152 297 219q135 49 273 49q108 0 204 -24q142 -37 250 -123z" />
    <glyph glyph-name="uni1EE0" unicode="&#x1ee0;" horiz-adv-x="1548" 
d="M393 737q0 -278 137 -413q105 -103 265 -103q155 0 260 103q137 135 137 413q0 277 -137 410q-105 102 -260 102q-156 0 -263 -102q-139 -135 -139 -410zM1034 1892h135q-12 -61 -30 -104q-62 -141 -195 -141q-35 0 -69.5 8t-85 24.5l-101.5 32.5q-27 8 -43 8
q-49 0 -76 -34q-16 -23 -22 -56h-131q8 45 21.5 81t43 79t68.5 65q49 29 117 29q47 0 147 -41q92 -33 127 -33q43 0 64.5 24t29.5 58zM1249 1364q43 22 66.5 72.5t23.5 99.5h-106v168h242v-172q0 -84 -25 -135q-33 -68 -119 -111q82 -90 125 -224t43 -325q0 -313 -139 -508
q-109 -151 -297 -221q-133 -49 -268 -49q-142 0 -271 47q-188 70 -297 219q-141 197 -141 512q0 314 139 506q109 152 297 219q135 49 273 49q108 0 204 -24q142 -37 250 -123z" />
    <glyph glyph-name="uni1EE2" unicode="&#x1ee2;" horiz-adv-x="1548" 
d="M393 737q0 -278 137 -413q105 -103 265 -103q155 0 260 103q137 135 137 413q0 277 -137 410q-105 102 -260 102q-156 0 -263 -102q-139 -135 -139 -410zM922 -123v-237h-258v237h258zM1249 1364q43 22 66.5 72.5t23.5 99.5h-106v168h242v-172q0 -84 -25 -135
q-33 -68 -119 -111q82 -90 125 -224t43 -325q0 -313 -139 -508q-109 -151 -297 -221q-133 -49 -268 -49q-142 0 -271 47q-188 70 -297 219q-141 197 -141 512q0 314 139 506q109 152 297 219q135 49 273 49q108 0 204 -24q142 -37 250 -123z" />
    <glyph glyph-name="Ygrave" unicode="&#x1ef2;" horiz-adv-x="1429" 
d="M847 553v-553h-307v557l-508 913h360l308 -639l290 639h349zM676 1618l-303 299h316l192 -299h-205z" />
    <glyph glyph-name="Yacute" unicode="&#xdd;" horiz-adv-x="1429" 
d="M847 553v-553h-307v557l-508 913h360l308 -639l290 639h349zM1078 1917l-303 -299h-205l193 299h315z" />
    <glyph glyph-name="uni1EF6" unicode="&#x1ef6;" horiz-adv-x="1429" 
d="M847 553v-553h-307v557l-508 913h360l308 -639l290 639h349zM778 1606h-146q0 95 17.5 144t75 89.5t57.5 83.5t-22.5 61t-52.5 18q-47 0 -65 -26t-18 -81l-160 -3q0 133 77 194q65 52 158 52q82 0 144 -32q107 -55 107 -178q0 -58 -27.5 -97.5t-86 -81t-58.5 -143.5z" />
    <glyph glyph-name="uni1EF8" unicode="&#x1ef8;" horiz-adv-x="1429" 
d="M847 553v-553h-307v557l-508 913h360l308 -639l290 639h349zM968 1892h136q-13 -61 -31 -104q-62 -141 -195 -141q-34 0 -69 8t-85 24.5l-102 32.5q-26 8 -43 8q-49 0 -75 -34q-17 -23 -23 -56h-131q8 45 21.5 81t43 79t68.5 65q49 29 117 29q47 0 147 -41
q92 -33 127 -33q43 0 64.5 24t29.5 58z" />
    <glyph glyph-name="uni1EF4" unicode="&#x1ef4;" horiz-adv-x="1429" 
d="M847 553v-553h-307v557l-508 913h360l308 -639l290 639h349zM824 -106v-238h-258v238h258z" />
    <glyph glyph-name="agrave" unicode="&#xe0;" 
d="M1015 803v-590q0 -88 16.5 -123t49.5 -45v-45h-311q-17 55 -21 72.5t-4 58.5q-66 -70 -127 -104q-98 -56 -225 -56q-137 0 -228 74q-104 86 -104 246q0 151 90 244q80 81 225 104l258 37q58 10 80.5 30.5t22.5 55.5q0 80 -66 108q-43 19 -123 19q-96 0 -139 -51
q-29 -33 -37 -101h-278q22 228 172 316q110 65 315 65q166 0 275 -55q159 -80 159 -260zM737 393v139q-23 -20 -63 -32.5t-134 -27.5t-135 -44q-57 -39 -57 -121q0 -67 45 -102q37 -29 86 -29q100 0 179 59.5t79 157.5zM471 1237l-299 299h315l192 -299h-208z" />
    <glyph glyph-name="aacute" unicode="&#xe1;" 
d="M1015 803v-590q0 -88 16.5 -123t49.5 -45v-45h-311q-17 55 -21 72.5t-4 58.5q-66 -70 -127 -104q-98 -56 -225 -56q-137 0 -228 74q-104 86 -104 246q0 151 90 244q80 81 225 104l258 37q58 10 80.5 30.5t22.5 55.5q0 80 -66 108q-43 19 -123 19q-96 0 -139 -51
q-29 -33 -37 -101h-278q22 228 172 316q110 65 315 65q166 0 275 -55q159 -80 159 -260zM737 393v139q-23 -20 -63 -32.5t-134 -27.5t-135 -44q-57 -39 -57 -121q0 -67 45 -102q37 -29 86 -29q100 0 179 59.5t79 157.5zM430 1237l192 299h315l-299 -299h-208z" />
    <glyph glyph-name="uni1EA3" unicode="&#x1ea3;" 
d="M1015 803v-590q0 -88 16.5 -123t49.5 -45v-45h-311q-17 55 -21 72.5t-4 58.5q-66 -70 -127 -104q-98 -56 -225 -56q-137 0 -228 74q-104 86 -104 246q0 151 90 244q80 81 225 104l258 37q58 10 80.5 30.5t22.5 55.5q0 80 -66 108q-43 19 -123 19q-96 0 -139 -51
q-29 -33 -37 -101h-278q22 228 172 316q110 65 315 65q166 0 275 -55q159 -80 159 -260zM737 393v139q-23 -20 -63 -32.5t-134 -27.5t-135 -44q-57 -39 -57 -121q0 -67 45 -102q37 -29 86 -29q100 0 179 59.5t79 157.5zM610 1178h-146q0 95 18 144t75 89t57 84q0 43 -22 61
t-52 18q-48 0 -66 -26t-18 -81l-160 -3q0 133 78 194q65 52 158 52q81 0 143 -32q107 -55 107 -178q0 -58 -27.5 -97.5t-86 -81t-58.5 -143.5z" />
    <glyph glyph-name="atilde" unicode="&#xe3;" 
d="M1015 803v-590q0 -88 16.5 -123t49.5 -45v-45h-311q-17 55 -21 72.5t-4 58.5q-66 -70 -127 -104q-98 -56 -225 -56q-137 0 -228 74q-104 86 -104 246q0 151 90 244q80 81 225 104l258 37q58 10 80.5 30.5t22.5 55.5q0 80 -66 108q-43 19 -123 19q-96 0 -139 -51
q-29 -33 -37 -101h-278q22 228 172 316q110 65 315 65q166 0 275 -55q159 -80 159 -260zM737 393v139q-23 -20 -63 -32.5t-134 -27.5t-135 -44q-57 -39 -57 -121q0 -67 45 -102q37 -29 86 -29q100 0 179 59.5t79 157.5zM823 1503h131q-16 -117 -75.5 -181.5t-145.5 -64.5
q-35 0 -70 8.5t-77 21.5t-74 24q-60 20 -82 20q-45 0 -72 -35q-16 -22 -23 -55h-131q11 53 17 72q14 45 41 84q35 45 80 71.5t108 26.5q45 0 82 -12q41 -19 66 -29q92 -33 127 -33q47 0 68.5 23.5t29.5 58.5z" />
    <glyph glyph-name="uni1EA1" unicode="&#x1ea1;" 
d="M1015 803v-590q0 -88 16.5 -123t49.5 -45v-45h-311q-17 55 -21 72.5t-4 58.5q-66 -70 -127 -104q-98 -56 -225 -56q-137 0 -228 74q-104 86 -104 246q0 151 90 244q80 81 225 104l258 37q58 10 80.5 30.5t22.5 55.5q0 80 -66 108q-43 19 -123 19q-96 0 -139 -51
q-29 -33 -37 -101h-278q22 228 172 316q110 65 315 65q166 0 275 -55q159 -80 159 -260zM737 393v139q-23 -20 -63 -32.5t-134 -27.5t-135 -44q-57 -39 -57 -121q0 -67 45 -102q37 -29 86 -29q100 0 179 59.5t79 157.5zM691 -123v-237h-258v237h258z" />
    <glyph glyph-name="acircumflex" unicode="&#xe2;" 
d="M1015 803v-590q0 -88 16.5 -123t49.5 -45v-45h-311q-17 55 -21 72.5t-4 58.5q-66 -70 -127 -104q-98 -56 -225 -56q-137 0 -228 74q-104 86 -104 246q0 151 90 244q80 81 225 104l258 37q58 10 80.5 30.5t22.5 55.5q0 80 -66 108q-43 19 -123 19q-96 0 -139 -51
q-29 -33 -37 -101h-278q22 228 172 316q110 65 315 65q166 0 275 -55q159 -80 159 -260zM737 393v139q-23 -20 -63 -32.5t-134 -27.5t-135 -44q-57 -39 -57 -121q0 -67 45 -102q37 -29 86 -29q100 0 179 59.5t79 157.5zM679 1516l234 -299h-234l-131 167l-127 -167h-233
l233 299h258z" />
    <glyph glyph-name="uni1EA7" unicode="&#x1ea7;" 
d="M1015 803v-590q0 -88 16.5 -123t49.5 -45v-45h-311q-17 55 -21 72.5t-4 58.5q-66 -70 -127 -104q-98 -56 -225 -56q-137 0 -228 74q-104 86 -104 246q0 151 90 244q80 81 225 104l258 37q58 10 80.5 30.5t22.5 55.5q0 80 -66 108q-43 19 -123 19q-96 0 -139 -51
q-29 -33 -37 -101h-278q22 228 172 316q110 65 315 65q166 0 275 -55q159 -80 159 -260zM737 393v139q-23 -20 -63 -32.5t-134 -27.5t-135 -44q-57 -39 -57 -121q0 -67 45 -102q37 -29 86 -29q100 0 179 59.5t79 157.5zM841 1422l-299 299h315l192 -299h-208zM679 1516
l234 -299h-234l-131 167l-127 -167h-233l233 299h258z" />
    <glyph glyph-name="uni1EA5" unicode="&#x1ea5;" 
d="M1015 803v-590q0 -88 16.5 -123t49.5 -45v-45h-311q-17 55 -21 72.5t-4 58.5q-66 -70 -127 -104q-98 -56 -225 -56q-137 0 -228 74q-104 86 -104 246q0 151 90 244q80 81 225 104l258 37q58 10 80.5 30.5t22.5 55.5q0 80 -66 108q-43 19 -123 19q-96 0 -139 -51
q-29 -33 -37 -101h-278q22 228 172 316q110 65 315 65q166 0 275 -55q159 -80 159 -260zM737 393v139q-23 -20 -63 -32.5t-134 -27.5t-135 -44q-57 -39 -57 -121q0 -67 45 -102q37 -29 86 -29q100 0 179 59.5t79 157.5zM781 1431l192 299h315l-299 -299h-208zM679 1516
l234 -299h-234l-131 167l-127 -167h-233l233 299h258z" />
    <glyph glyph-name="uni1EA9" unicode="&#x1ea9;" 
d="M1015 803v-590q0 -88 16.5 -123t49.5 -45v-45h-311q-17 55 -21 72.5t-4 58.5q-66 -70 -127 -104q-98 -56 -225 -56q-137 0 -228 74q-104 86 -104 246q0 151 90 244q80 81 225 104l258 37q58 10 80.5 30.5t22.5 55.5q0 80 -66 108q-43 19 -123 19q-96 0 -139 -51
q-29 -33 -37 -101h-278q22 228 172 316q110 65 315 65q166 0 275 -55q159 -80 159 -260zM737 393v139q-23 -20 -63 -32.5t-134 -27.5t-135 -44q-57 -39 -57 -121q0 -67 45 -102q37 -29 86 -29q100 0 179 59.5t79 157.5zM979 1390h-146q0 95 18 144t75 89t57 84q0 43 -22 61
t-52 18q-48 0 -66 -26t-18 -81l-160 -3q0 133 78 194q65 52 158 52q81 0 143 -32q107 -55 107 -178q0 -58 -27.5 -97.5t-86 -81t-58.5 -143.5zM679 1516l234 -299h-234l-131 167l-127 -167h-233l233 299h258z" />
    <glyph glyph-name="uni1EAB" unicode="&#x1eab;" 
d="M1015 803v-590q0 -88 16.5 -123t49.5 -45v-45h-311q-17 55 -21 72.5t-4 58.5q-66 -70 -127 -104q-98 -56 -225 -56q-137 0 -228 74q-104 86 -104 246q0 151 90 244q80 81 225 104l258 37q58 10 80.5 30.5t22.5 55.5q0 80 -66 108q-43 19 -123 19q-96 0 -139 -51
q-29 -33 -37 -101h-278q22 228 172 316q110 65 315 65q166 0 275 -55q159 -80 159 -260zM737 393v139q-23 -20 -63 -32.5t-134 -27.5t-135 -44q-57 -39 -57 -121q0 -67 45 -102q37 -29 86 -29q100 0 179 59.5t79 157.5zM860 1808h131q-16 -117 -75.5 -181.5t-145.5 -64.5
q-35 0 -70 8.5t-77 21.5t-74 24q-60 20 -82 20q-45 0 -72 -35q-16 -22 -23 -55h-131q11 53 17 72q14 45 41 84q35 45 80 71.5t108 26.5q45 0 82 -12q41 -19 66 -29q92 -33 127 -33q47 0 68.5 23.5t29.5 58.5zM679 1516l234 -299h-234l-131 167l-127 -167h-233l233 299h258z
" />
    <glyph glyph-name="uni1EAD" unicode="&#x1ead;" 
d="M1015 803v-590q0 -88 16.5 -123t49.5 -45v-45h-311q-17 55 -21 72.5t-4 58.5q-66 -70 -127 -104q-98 -56 -225 -56q-137 0 -228 74q-104 86 -104 246q0 151 90 244q80 81 225 104l258 37q58 10 80.5 30.5t22.5 55.5q0 80 -66 108q-43 19 -123 19q-96 0 -139 -51
q-29 -33 -37 -101h-278q22 228 172 316q110 65 315 65q166 0 275 -55q159 -80 159 -260zM737 393v139q-23 -20 -63 -32.5t-134 -27.5t-135 -44q-57 -39 -57 -121q0 -67 45 -102q37 -29 86 -29q100 0 179 59.5t79 157.5zM691 -123v-237h-258v237h258zM679 1516l234 -299h-234
l-131 167l-127 -167h-233l233 299h258z" />
    <glyph glyph-name="abreve" unicode="&#x103;" 
d="M1015 803v-590q0 -88 16.5 -123t49.5 -45v-45h-311q-17 55 -21 72.5t-4 58.5q-66 -70 -127 -104q-98 -56 -225 -56q-137 0 -228 74q-104 86 -104 246q0 151 90 244q80 81 225 104l258 37q58 10 80.5 30.5t22.5 55.5q0 80 -66 108q-43 19 -123 19q-96 0 -139 -51
q-29 -33 -37 -101h-278q22 228 172 316q110 65 315 65q166 0 275 -55q159 -80 159 -260zM737 393v139q-23 -20 -63 -32.5t-134 -27.5t-135 -44q-57 -39 -57 -121q0 -67 45 -102q37 -29 86 -29q100 0 179 59.5t79 157.5zM782 1511h135q-14 -147 -117 -227q-94 -72 -247 -72
q-179 0 -265 119q-53 74 -63 180h135q14 -63 41 -90q51 -53 164 -53q88 0 135 23q68 32 82 120z" />
    <glyph glyph-name="uni1EB1" unicode="&#x1eb1;" 
d="M1015 803v-590q0 -88 16.5 -123t49.5 -45v-45h-311q-17 55 -21 72.5t-4 58.5q-66 -70 -127 -104q-98 -56 -225 -56q-137 0 -228 74q-104 86 -104 246q0 151 90 244q80 81 225 104l258 37q58 10 80.5 30.5t22.5 55.5q0 80 -66 108q-43 19 -123 19q-96 0 -139 -51
q-29 -33 -37 -101h-278q22 228 172 316q110 65 315 65q166 0 275 -55q159 -80 159 -260zM737 393v139q-23 -20 -63 -32.5t-134 -27.5t-135 -44q-57 -39 -57 -121q0 -67 45 -102q37 -29 86 -29q100 0 179 59.5t79 157.5zM508 1487l-299 299h315l192 -299h-208zM782 1511h135
q-14 -147 -117 -227q-94 -72 -247 -72q-179 0 -265 119q-53 74 -63 180h135q14 -63 41 -90q51 -53 164 -53q88 0 135 23q68 32 82 120z" />
    <glyph glyph-name="uni1EAF" unicode="&#x1eaf;" 
d="M1015 803v-590q0 -88 16.5 -123t49.5 -45v-45h-311q-17 55 -21 72.5t-4 58.5q-66 -70 -127 -104q-98 -56 -225 -56q-137 0 -228 74q-104 86 -104 246q0 151 90 244q80 81 225 104l258 37q58 10 80.5 30.5t22.5 55.5q0 80 -66 108q-43 19 -123 19q-96 0 -139 -51
q-29 -33 -37 -101h-278q22 228 172 316q110 65 315 65q166 0 275 -55q159 -80 159 -260zM737 393v139q-23 -20 -63 -32.5t-134 -27.5t-135 -44q-57 -39 -57 -121q0 -67 45 -102q37 -29 86 -29q100 0 179 59.5t79 157.5zM467 1486l192 299h315l-299 -299h-208zM782 1511h135
q-14 -147 -117 -227q-94 -72 -247 -72q-179 0 -265 119q-53 74 -63 180h135q14 -63 41 -90q51 -53 164 -53q88 0 135 23q68 32 82 120z" />
    <glyph glyph-name="uni1EB3" unicode="&#x1eb3;" 
d="M1015 803v-590q0 -88 16.5 -123t49.5 -45v-45h-311q-17 55 -21 72.5t-4 58.5q-66 -70 -127 -104q-98 -56 -225 -56q-137 0 -228 74q-104 86 -104 246q0 151 90 244q80 81 225 104l258 37q58 10 80.5 30.5t22.5 55.5q0 80 -66 108q-43 19 -123 19q-96 0 -139 -51
q-29 -33 -37 -101h-278q22 228 172 316q110 65 315 65q166 0 275 -55q159 -80 159 -260zM737 393v139q-23 -20 -63 -32.5t-134 -27.5t-135 -44q-57 -39 -57 -121q0 -67 45 -102q37 -29 86 -29q100 0 179 59.5t79 157.5zM646 1464h-146q0 95 18 144t75 89t57 84q0 43 -22 61
t-52 18q-48 0 -66 -26t-18 -81l-160 -3q0 133 78 194q65 52 158 52q81 0 143 -32q107 -55 107 -178q0 -58 -27.5 -97.5t-86 -81t-58.5 -143.5zM782 1511h135q-14 -147 -117 -227q-94 -72 -247 -72q-179 0 -265 119q-53 74 -63 180h135q14 -63 41 -90q51 -53 164 -53
q88 0 135 23q68 32 82 120z" />
    <glyph glyph-name="uni1EB5" unicode="&#x1eb5;" 
d="M1015 803v-590q0 -88 16.5 -123t49.5 -45v-45h-311q-17 55 -21 72.5t-4 58.5q-66 -70 -127 -104q-98 -56 -225 -56q-137 0 -228 74q-104 86 -104 246q0 151 90 244q80 81 225 104l258 37q58 10 80.5 30.5t22.5 55.5q0 80 -66 108q-43 19 -123 19q-96 0 -139 -51
q-29 -33 -37 -101h-278q22 228 172 316q110 65 315 65q166 0 275 -55q159 -80 159 -260zM737 393v139q-23 -20 -63 -32.5t-134 -27.5t-135 -44q-57 -39 -57 -121q0 -67 45 -102q37 -29 86 -29q100 0 179 59.5t79 157.5zM916 1836h131q-16 -117 -75.5 -181.5t-145.5 -64.5
q-35 0 -70 8.5t-77 21.5t-74 24q-60 20 -82 20q-45 0 -72 -35q-16 -22 -23 -55h-131q11 53 17 72q14 45 41 84q35 45 80 71.5t108 26.5q45 0 82 -12q41 -19 66 -29q92 -33 127 -33q47 0 68.5 23.5t29.5 58.5zM782 1511h135q-14 -147 -117 -227q-94 -72 -247 -72
q-179 0 -265 119q-53 74 -63 180h135q14 -63 41 -90q51 -53 164 -53q88 0 135 23q68 32 82 120z" />
    <glyph glyph-name="uni1EB7" unicode="&#x1eb7;" 
d="M1015 803v-590q0 -88 16.5 -123t49.5 -45v-45h-311q-17 55 -21 72.5t-4 58.5q-66 -70 -127 -104q-98 -56 -225 -56q-137 0 -228 74q-104 86 -104 246q0 151 90 244q80 81 225 104l258 37q58 10 80.5 30.5t22.5 55.5q0 80 -66 108q-43 19 -123 19q-96 0 -139 -51
q-29 -33 -37 -101h-278q22 228 172 316q110 65 315 65q166 0 275 -55q159 -80 159 -260zM737 393v139q-23 -20 -63 -32.5t-134 -27.5t-135 -44q-57 -39 -57 -121q0 -67 45 -102q37 -29 86 -29q100 0 179 59.5t79 157.5zM691 -123v-237h-258v237h258zM782 1511h135
q-14 -147 -117 -227q-94 -72 -247 -72q-179 0 -265 119q-53 74 -63 180h135q14 -63 41 -90q51 -53 164 -53q88 0 135 23q68 32 82 120z" />
    <glyph glyph-name="egrave" unicode="&#xe8;" 
d="M774 319h295q-51 -182 -197 -272q-121 -76 -282 -76q-250 0 -385 129q-156 150 -156 469q0 258 145 410q136 139 375 139q205 0 336 -112q176 -152 176 -486v-53h-745q14 -143 75.5 -204.5t178.5 -61.5q65 0 117.5 30.5t66.5 87.5zM344 655h442q-12 121 -80 181
q-57 49 -141 49q-194 0 -221 -230zM471 1237l-299 299h315l193 -299h-209z" />
    <glyph glyph-name="eacute" unicode="&#xe9;" 
d="M774 319h295q-51 -182 -197 -272q-121 -76 -282 -76q-250 0 -385 129q-156 150 -156 469q0 258 145 410q136 139 375 139q205 0 336 -112q176 -152 176 -486v-53h-745q14 -143 75.5 -204.5t178.5 -61.5q65 0 117.5 30.5t66.5 87.5zM344 655h442q-12 121 -80 181
q-57 49 -141 49q-194 0 -221 -230zM430 1237l192 299h316l-299 -299h-209z" />
    <glyph glyph-name="uni1EBB" unicode="&#x1ebb;" 
d="M774 319h295q-51 -182 -197 -272q-121 -76 -282 -76q-250 0 -385 129q-156 150 -156 469q0 258 145 410q136 139 375 139q205 0 336 -112q176 -152 176 -486v-53h-745q14 -143 75.5 -204.5t178.5 -61.5q65 0 117.5 30.5t66.5 87.5zM344 655h442q-12 121 -80 181
q-57 49 -141 49q-194 0 -221 -230zM610 1178h-145q0 95 17.5 144t75 89t57.5 84q0 43 -22.5 61t-52.5 18q-47 0 -65.5 -26t-18.5 -81l-159 -3q0 133 77 194q65 52 158 52q82 0 144 -32q106 -55 106 -178q0 -58 -27.5 -97.5t-86 -81t-58.5 -143.5z" />
    <glyph glyph-name="uni1EBD" unicode="&#x1ebd;" 
d="M774 319h295q-51 -182 -197 -272q-121 -76 -282 -76q-250 0 -385 129q-156 150 -156 469q0 258 145 410q136 139 375 139q205 0 336 -112q176 -152 176 -486v-53h-745q14 -143 75.5 -204.5t178.5 -61.5q65 0 117.5 30.5t66.5 87.5zM344 655h442q-12 121 -80 181
q-57 49 -141 49q-194 0 -221 -230zM823 1503h131q-16 -117 -75.5 -181.5t-145.5 -64.5q-35 0 -69.5 8.5t-76.5 21.5l-75 24q-60 20 -82 20q-45 0 -72 -35q-16 -22 -22 -55h-131q10 53 16 72q14 45 41 84q35 45 80 71.5t108 26.5q45 0 82 -12q41 -19 66 -29q92 -33 127 -33
q47 0 68.5 23.5t29.5 58.5z" />
    <glyph glyph-name="uni1EB9" unicode="&#x1eb9;" 
d="M774 319h295q-51 -182 -197 -272q-121 -76 -282 -76q-250 0 -385 129q-156 150 -156 469q0 258 145 410q136 139 375 139q205 0 336 -112q176 -152 176 -486v-53h-745q14 -143 75.5 -204.5t178.5 -61.5q65 0 117.5 30.5t66.5 87.5zM344 655h442q-12 121 -80 181
q-57 49 -141 49q-194 0 -221 -230zM691 -123v-237h-258v237h258z" />
    <glyph glyph-name="ecircumflex" unicode="&#xea;" 
d="M774 319h295q-51 -182 -197 -272q-121 -76 -282 -76q-250 0 -385 129q-156 150 -156 469q0 258 145 410q136 139 375 139q205 0 336 -112q176 -152 176 -486v-53h-745q14 -143 75.5 -204.5t178.5 -61.5q65 0 117.5 30.5t66.5 87.5zM344 655h442q-12 121 -80 181
q-57 49 -141 49q-194 0 -221 -230zM680 1516l233 -299h-233l-131 167l-127 -167h-234l234 299h258z" />
    <glyph glyph-name="uni1EC1" unicode="&#x1ec1;" 
d="M774 319h295q-51 -182 -197 -272q-121 -76 -282 -76q-250 0 -385 129q-156 150 -156 469q0 258 145 410q136 139 375 139q205 0 336 -112q176 -152 176 -486v-53h-745q14 -143 75.5 -204.5t178.5 -61.5q65 0 117.5 30.5t66.5 87.5zM344 655h442q-12 121 -80 181
q-57 49 -141 49q-194 0 -221 -230zM812 1430l-299 299h315l193 -299h-209zM680 1516l233 -299h-233l-131 167l-127 -167h-234l234 299h258z" />
    <glyph glyph-name="uni1EBF" unicode="&#x1ebf;" 
d="M774 319h295q-51 -182 -197 -272q-121 -76 -282 -76q-250 0 -385 129q-156 150 -156 469q0 258 145 410q136 139 375 139q205 0 336 -112q176 -152 176 -486v-53h-745q14 -143 75.5 -204.5t178.5 -61.5q65 0 117.5 30.5t66.5 87.5zM344 655h442q-12 121 -80 181
q-57 49 -141 49q-194 0 -221 -230zM790 1431l192 299h316l-299 -299h-209zM680 1516l233 -299h-233l-131 167l-127 -167h-234l234 299h258z" />
    <glyph glyph-name="uni1EC3" unicode="&#x1ec3;" 
d="M774 319h295q-51 -182 -197 -272q-121 -76 -282 -76q-250 0 -385 129q-156 150 -156 469q0 258 145 410q136 139 375 139q205 0 336 -112q176 -152 176 -486v-53h-745q14 -143 75.5 -204.5t178.5 -61.5q65 0 117.5 30.5t66.5 87.5zM344 655h442q-12 121 -80 181
q-57 49 -141 49q-194 0 -221 -230zM952 1408h-145q0 95 17.5 144t75 89t57.5 84q0 43 -22.5 61t-52.5 18q-47 0 -65.5 -26t-18.5 -81l-159 -3q0 133 77 194q65 52 158 52q82 0 144 -32q106 -55 106 -178q0 -58 -27.5 -97.5t-86 -81t-58.5 -143.5zM680 1516l233 -299h-233
l-131 167l-127 -167h-234l234 299h258z" />
    <glyph glyph-name="uni1EC5" unicode="&#x1ec5;" 
d="M774 319h295q-51 -182 -197 -272q-121 -76 -282 -76q-250 0 -385 129q-156 150 -156 469q0 258 145 410q136 139 375 139q205 0 336 -112q176 -152 176 -486v-53h-745q14 -143 75.5 -204.5t178.5 -61.5q65 0 117.5 30.5t66.5 87.5zM344 655h442q-12 121 -80 181
q-57 49 -141 49q-194 0 -221 -230zM851 1808h131q-16 -117 -75.5 -181.5t-145.5 -64.5q-35 0 -69.5 8.5t-76.5 21.5l-75 24q-60 20 -82 20q-45 0 -72 -35q-16 -22 -22 -55h-131q10 53 16 72q14 45 41 84q35 45 80 71.5t108 26.5q45 0 82 -12q41 -19 66 -29q92 -33 127 -33
q47 0 68.5 23.5t29.5 58.5zM680 1516l233 -299h-233l-131 167l-127 -167h-234l234 299h258z" />
    <glyph glyph-name="uni1EC7" unicode="&#x1ec7;" 
d="M774 319h295q-51 -182 -197 -272q-121 -76 -282 -76q-250 0 -385 129q-156 150 -156 469q0 258 145 410q136 139 375 139q205 0 336 -112q176 -152 176 -486v-53h-745q14 -143 75.5 -204.5t178.5 -61.5q65 0 117.5 30.5t66.5 87.5zM344 655h442q-12 121 -80 181
q-57 49 -141 49q-194 0 -221 -230zM691 -123v-237h-258v237h258zM680 1516l233 -299h-233l-131 167l-127 -167h-234l234 299h258z" />
    <glyph glyph-name="igrave" unicode="&#xec;" horiz-adv-x="602" 
d="M143 1090h287v-1090h-287v1090zM212 1237l-299 299h315l193 -299h-209z" />
    <glyph glyph-name="iacute" unicode="&#xed;" horiz-adv-x="602" 
d="M143 1090h287v-1090h-287v1090zM126 1237l193 299h315l-299 -299h-209z" />
    <glyph glyph-name="uni1EC9" unicode="&#x1ec9;" horiz-adv-x="602" 
d="M143 1090h287v-1090h-287v1090zM380 1178h-146q0 95 17.5 144t75 89t57.5 84q0 43 -22.5 61t-52.5 18q-47 0 -65 -26t-18 -81l-160 -3q0 133 77 194q65 52 158 52q82 0 144 -32q107 -55 107 -178q0 -58 -27.5 -97.5t-86 -81t-58.5 -143.5z" />
    <glyph glyph-name="itilde" unicode="&#x129;" horiz-adv-x="602" 
d="M144 1090h286v-1090h-286v1090zM564 1503h132q-17 -117 -76.5 -181.5t-145.5 -64.5q-34 0 -69 8.5t-77 21.5l-75 24q-59 20 -82 20q-45 0 -71 -35q-17 -22 -23 -55h-131q10 53 16 72q15 45 41 84q35 45 80 71.5t109 26.5q45 0 82 -12q41 -19 65 -29q92 -33 127 -33
q47 0 68.5 23.5t29.5 58.5z" />
    <glyph glyph-name="uni1ECB" unicode="&#x1ecb;" horiz-adv-x="602" 
d="M143 1090h287v-1090h-287v1090zM430 1487v-266h-287v266h287zM415 -123v-237h-258v237h258z" />
    <glyph glyph-name="ograve" unicode="&#xf2;" horiz-adv-x="1245" 
d="M1191 545q0 -281 -168 -434q-151 -140 -389 -140q-235 0 -387 140q-170 155 -170 434q0 280 168 434q151 139 389 139t389 -139q168 -154 168 -434zM896 545q0 135 -47 217q-65 115 -215 115q-147 0 -213 -113q-49 -86 -49 -219q0 -135 47 -217q66 -115 215 -115
q148 0 213 113q49 86 49 219zM535 1237l-299 299h316l192 -299h-209z" />
    <glyph glyph-name="oacute" unicode="&#xf3;" horiz-adv-x="1245" 
d="M1191 545q0 -281 -168 -434q-151 -140 -389 -140q-235 0 -387 140q-170 155 -170 434q0 280 168 434q151 139 389 139t389 -139q168 -154 168 -434zM896 545q0 135 -47 217q-65 115 -215 115q-147 0 -213 -113q-49 -86 -49 -219q0 -135 47 -217q66 -115 215 -115
q148 0 213 113q49 86 49 219zM429 1237l193 299h315l-299 -299h-209z" />
    <glyph glyph-name="uni1ECF" unicode="&#x1ecf;" horiz-adv-x="1245" 
d="M1191 545q0 -281 -168 -434q-151 -140 -389 -140q-235 0 -387 140q-170 155 -170 434q0 280 168 434q151 139 389 139t389 -139q168 -154 168 -434zM896 545q0 135 -47 217q-65 115 -215 115q-147 0 -213 -113q-49 -86 -49 -219q0 -135 47 -217q66 -115 215 -115
q148 0 213 113q49 86 49 219zM693 1178h-146q0 95 17.5 144t75 89t57.5 84q0 43 -22.5 61t-52.5 18q-47 0 -65 -26t-18 -81l-160 -3q0 133 77 194q65 52 158 52q82 0 144 -32q107 -55 107 -178q0 -58 -27.5 -97.5t-86 -81t-58.5 -143.5z" />
    <glyph glyph-name="otilde" unicode="&#xf5;" horiz-adv-x="1245" 
d="M1191 545q0 -281 -168 -434q-151 -140 -389 -140q-235 0 -387 140q-170 155 -170 434q0 280 168 434q151 139 389 139t389 -139q168 -154 168 -434zM896 545q0 135 -47 217q-65 115 -215 115q-147 0 -213 -113q-49 -86 -49 -219q0 -135 47 -217q66 -115 215 -115
q148 0 213 113q49 86 49 219zM878 1503h131q-17 -117 -76 -181.5t-145 -64.5q-35 0 -70 8.5t-77 21.5l-75 24q-59 20 -81 20q-46 0 -72 -35q-17 -22 -23 -55h-131q11 53 17 72q14 45 41 84q34 45 79.5 71.5t108.5 26.5q45 0 82 -12q41 -19 65 -29q93 -33 127 -33
q48 0 69.5 23.5t29.5 58.5z" />
    <glyph glyph-name="uni1ECD" unicode="&#x1ecd;" horiz-adv-x="1245" 
d="M1191 545q0 -281 -168 -434q-151 -140 -389 -140q-235 0 -387 140q-170 155 -170 434q0 280 168 434q151 139 389 139t389 -139q168 -154 168 -434zM896 545q0 135 -47 217q-65 115 -215 115q-147 0 -213 -113q-49 -86 -49 -219q0 -135 47 -217q66 -115 215 -115
q148 0 213 113q49 86 49 219zM763 -123v-237h-258v237h258z" />
    <glyph glyph-name="ocircumflex" unicode="&#xf4;" horiz-adv-x="1245" 
d="M1191 545q0 -281 -168 -434q-151 -140 -389 -140q-235 0 -387 140q-170 155 -170 434q0 280 168 434q151 139 389 139t389 -139q168 -154 168 -434zM896 545q0 135 -47 217q-65 115 -215 115q-147 0 -213 -113q-49 -86 -49 -219q0 -135 47 -217q66 -115 215 -115
q148 0 213 113q49 86 49 219zM763 1516l234 -299h-234l-131 167l-127 -167h-233l233 299h258z" />
    <glyph glyph-name="uni1ED3" unicode="&#x1ed3;" horiz-adv-x="1245" 
d="M1191 545q0 -281 -168 -434q-151 -140 -389 -140q-235 0 -387 140q-170 155 -170 434q0 280 168 434q151 139 389 139t389 -139q168 -154 168 -434zM896 545q0 135 -47 217q-65 115 -215 115q-147 0 -213 -113q-49 -86 -49 -219q0 -135 47 -217q66 -115 215 -115
q148 0 213 113q49 86 49 219zM923 1432l-299 299h316l192 -299h-209zM763 1516l234 -299h-234l-131 167l-127 -167h-233l233 299h258z" />
    <glyph glyph-name="uni1ED1" unicode="&#x1ed1;" horiz-adv-x="1245" 
d="M1191 545q0 -281 -168 -434q-151 -140 -389 -140q-235 0 -387 140q-170 155 -170 434q0 280 168 434q151 139 389 139t389 -139q168 -154 168 -434zM896 545q0 135 -47 217q-65 115 -215 115q-147 0 -213 -113q-49 -86 -49 -219q0 -135 47 -217q66 -115 215 -115
q148 0 213 113q49 86 49 219zM854 1431l193 299h315l-299 -299h-209zM763 1516l234 -299h-234l-131 167l-127 -167h-233l233 299h258z" />
    <glyph glyph-name="uni1ED5" unicode="&#x1ed5;" horiz-adv-x="1245" 
d="M1191 545q0 -281 -168 -434q-151 -140 -389 -140q-235 0 -387 140q-170 155 -170 434q0 280 168 434q151 139 389 139t389 -139q168 -154 168 -434zM896 545q0 135 -47 217q-65 115 -215 115q-147 0 -213 -113q-49 -86 -49 -219q0 -135 47 -217q66 -115 215 -115
q148 0 213 113q49 86 49 219zM1035 1409h-146q0 95 17.5 144t75 89t57.5 84q0 43 -22.5 61t-52.5 18q-47 0 -65 -26t-18 -81l-160 -3q0 133 77 194q65 52 158 52q82 0 144 -32q107 -55 107 -178q0 -58 -27.5 -97.5t-86 -81t-58.5 -143.5zM763 1516l234 -299h-234l-131 167
l-127 -167h-233l233 299h258z" />
    <glyph glyph-name="uni1ED7" unicode="&#x1ed7;" horiz-adv-x="1245" 
d="M1191 545q0 -281 -168 -434q-151 -140 -389 -140q-235 0 -387 140q-170 155 -170 434q0 280 168 434q151 139 389 139t389 -139q168 -154 168 -434zM896 545q0 135 -47 217q-65 115 -215 115q-147 0 -213 -113q-49 -86 -49 -219q0 -135 47 -217q66 -115 215 -115
q148 0 213 113q49 86 49 219zM934 1800h131q-17 -117 -76 -181.5t-145 -64.5q-35 0 -70 8.5t-77 21.5l-75 24q-59 20 -81 20q-46 0 -72 -35q-17 -22 -23 -55h-131q11 53 17 72q14 45 41 84q34 45 79.5 71.5t108.5 26.5q45 0 82 -12q41 -19 65 -29q93 -33 127 -33
q48 0 69.5 23.5t29.5 58.5zM763 1516l234 -299h-234l-131 167l-127 -167h-233l233 299h258z" />
    <glyph glyph-name="uni1ED9" unicode="&#x1ed9;" horiz-adv-x="1245" 
d="M1191 545q0 -281 -168 -434q-151 -140 -389 -140q-235 0 -387 140q-170 155 -170 434q0 280 168 434q151 139 389 139t389 -139q168 -154 168 -434zM896 545q0 135 -47 217q-65 115 -215 115q-147 0 -213 -113q-49 -86 -49 -219q0 -135 47 -217q66 -115 215 -115
q148 0 213 113q49 86 49 219zM763 -123v-237h-258v237h258zM763 1516l234 -299h-234l-131 167l-127 -167h-233l233 299h258z" />
    <glyph glyph-name="glyph216" unicode="&#xf9;" horiz-adv-x="1245" 
d="M1126 1090v-1090h-274v156q-109 -185 -336 -185q-172 0 -269 97q-104 102 -104 305v717h287v-676q0 -115 59 -164q45 -37 129 -37q86 0 146 51q75 66 75 199v627h287zM582 1237l-299 299h315l193 -299h-209z" />
    <glyph glyph-name="glyph217" unicode="&#xfa;" horiz-adv-x="1245" 
d="M1126 1090v-1090h-274v156q-109 -185 -336 -185q-172 0 -269 97q-104 102 -104 305v717h287v-676q0 -115 59 -164q45 -37 129 -37q86 0 146 51q75 66 75 199v627h287zM494 1237l192 299h316l-299 -299h-209z" />
    <glyph glyph-name="uni1EE7" unicode="&#x1ee7;" horiz-adv-x="1245" 
d="M1126 1090v-1090h-274v156q-109 -185 -336 -185q-172 0 -269 97q-104 102 -104 305v717h287v-676q0 -115 59 -164q45 -37 129 -37q86 0 146 51q75 66 75 199v627h287zM711 1178h-145q0 95 17.5 144t75 89t57.5 84q0 43 -22.5 61t-52.5 18q-48 0 -66 -26t-18 -81l-159 -3
q0 133 77 194q65 52 158 52q81 0 143 -32q107 -55 107 -178q0 -58 -27.5 -97.5t-86 -81t-58.5 -143.5z" />
    <glyph glyph-name="utilde" unicode="&#x169;" horiz-adv-x="1245" 
d="M1126 1090v-1090h-274v156q-109 -185 -336 -185q-172 0 -269 97q-104 102 -104 305v717h287v-676q0 -115 59 -164q45 -37 129 -37q86 0 146 51q75 66 75 199v627h287zM906 1503h131q-16 -117 -75.5 -181.5t-145.5 -64.5q-35 0 -69.5 8.5t-76.5 21.5l-75 24q-59 20 -82 20
q-45 0 -72 -35q-16 -22 -22 -55h-131q10 53 16 72q14 45 41 84q35 45 80 71.5t108 26.5q46 0 82 -12q41 -19 66 -29q92 -33 127 -33q47 0 68.5 23.5t29.5 58.5z" />
    <glyph glyph-name="uni1EE5" unicode="&#x1ee5;" horiz-adv-x="1245" 
d="M1126 1090v-1090h-274v156q-109 -185 -336 -185q-172 0 -269 97q-104 102 -104 305v717h287v-676q0 -115 59 -164q45 -37 129 -37q86 0 146 51q75 66 75 199v627h287zM799 -123v-237h-259v237h259z" />
    <glyph glyph-name="uhorn" unicode="&#x1b0;" horiz-adv-x="1245" 
d="M1126 1057q41 22 51 52t10 83h-106v168h242v-172q0 -70 -49.5 -125t-147.5 -105v-958h-274v156q-109 -185 -336 -185q-172 0 -269 97q-104 102 -104 305v717h287v-676q0 -115 59 -164q45 -37 129 -37q86 0 146 51q75 66 75 199v627h287v-33z" />
    <glyph glyph-name="uni1EEB" unicode="&#x1eeb;" horiz-adv-x="1245" 
d="M582 1237l-299 299h315l193 -299h-209zM1126 1057q41 22 51 52t10 83h-106v168h242v-172q0 -70 -49.5 -125t-147.5 -105v-958h-274v156q-109 -185 -336 -185q-172 0 -269 97q-104 102 -104 305v717h287v-676q0 -115 59 -164q45 -37 129 -37q86 0 146 51q75 66 75 199v627
h287v-33z" />
    <glyph glyph-name="uni1EE9" unicode="&#x1ee9;" horiz-adv-x="1245" 
d="M494 1237l192 299h316l-299 -299h-209zM1126 1057q41 22 51 52t10 83h-106v168h242v-172q0 -70 -49.5 -125t-147.5 -105v-958h-274v156q-109 -185 -336 -185q-172 0 -269 97q-104 102 -104 305v717h287v-676q0 -115 59 -164q45 -37 129 -37q86 0 146 51q75 66 75 199v627
h287v-33z" />
    <glyph glyph-name="uni1EED" unicode="&#x1eed;" horiz-adv-x="1245" 
d="M711 1178h-145q0 95 17.5 144t75 89t57.5 84q0 43 -22.5 61t-52.5 18q-48 0 -66 -26t-18 -81l-159 -3q0 133 77 194q65 52 158 52q81 0 143 -32q107 -55 107 -178q0 -58 -27.5 -97.5t-86 -81t-58.5 -143.5zM1126 1057q41 22 51 52t10 83h-106v168h242v-172
q0 -70 -49.5 -125t-147.5 -105v-958h-274v156q-109 -185 -336 -185q-172 0 -269 97q-104 102 -104 305v717h287v-676q0 -115 59 -164q45 -37 129 -37q86 0 146 51q75 66 75 199v627h287v-33z" />
    <glyph glyph-name="uni1EEF" unicode="&#x1eef;" horiz-adv-x="1245" 
d="M906 1503h131q-16 -117 -75.5 -181.5t-145.5 -64.5q-35 0 -69.5 8.5t-76.5 21.5l-75 24q-59 20 -82 20q-45 0 -72 -35q-16 -22 -22 -55h-131q10 53 16 72q14 45 41 84q35 45 80 71.5t108 26.5q46 0 82 -12q41 -19 66 -29q92 -33 127 -33q47 0 68.5 23.5t29.5 58.5z
M1126 1057q41 22 51 52t10 83h-106v168h242v-172q0 -70 -49.5 -125t-147.5 -105v-958h-274v156q-109 -185 -336 -185q-172 0 -269 97q-104 102 -104 305v717h287v-676q0 -115 59 -164q45 -37 129 -37q86 0 146 51q75 66 75 199v627h287v-33z" />
    <glyph glyph-name="uni1EF1" unicode="&#x1ef1;" horiz-adv-x="1245" 
d="M799 -123v-237h-259v237h259zM1126 1057q41 22 51 52t10 83h-106v168h242v-172q0 -70 -49.5 -125t-147.5 -105v-958h-274v156q-109 -185 -336 -185q-172 0 -269 97q-104 102 -104 305v717h287v-676q0 -115 59 -164q45 -37 129 -37q86 0 146 51q75 66 75 199v627h287v-33z
" />
    <glyph glyph-name="ohorn" unicode="&#x1a1;" horiz-adv-x="1245" 
d="M995 987q43 23 64.5 68t21.5 92h-107v168h242v-172q0 -76 -31 -124t-121 -93q127 -146 127 -381q0 -281 -168 -434q-151 -140 -389 -140q-235 0 -387 140q-170 155 -170 434q0 280 168 434q151 139 389 139q98 0 189.5 -33.5t171.5 -97.5zM896 545q0 135 -47 217
q-65 115 -215 115q-147 0 -213 -113q-49 -86 -49 -219q0 -135 47 -217q66 -115 215 -115q148 0 213 113q49 86 49 219z" />
    <glyph glyph-name="uni1EDD" unicode="&#x1edd;" horiz-adv-x="1245" 
d="M896 545q0 135 -47 217q-65 115 -215 115q-147 0 -213 -113q-49 -86 -49 -219q0 -135 47 -217q66 -115 215 -115q148 0 213 113q49 86 49 219zM535 1237l-299 299h316l192 -299h-209zM995 987q43 23 64.5 68t21.5 92h-107v168h242v-172q0 -76 -31 -124t-121 -93
q127 -146 127 -381q0 -281 -168 -434q-151 -140 -389 -140q-235 0 -387 140q-170 155 -170 434q0 280 168 434q151 139 389 139q98 0 189.5 -33.5t171.5 -97.5z" />
    <glyph glyph-name="uni1EDB" unicode="&#x1edb;" horiz-adv-x="1245" 
d="M896 545q0 135 -47 217q-65 115 -215 115q-147 0 -213 -113q-49 -86 -49 -219q0 -135 47 -217q66 -115 215 -115q148 0 213 113q49 86 49 219zM429 1237l193 299h315l-299 -299h-209zM995 987q43 23 64.5 68t21.5 92h-107v168h242v-172q0 -76 -31 -124t-121 -93
q127 -146 127 -381q0 -281 -168 -434q-151 -140 -389 -140q-235 0 -387 140q-170 155 -170 434q0 280 168 434q151 139 389 139q98 0 189.5 -33.5t171.5 -97.5z" />
    <glyph glyph-name="uni1EDF" unicode="&#x1edf;" horiz-adv-x="1245" 
d="M896 545q0 135 -47 217q-65 115 -215 115q-147 0 -213 -113q-49 -86 -49 -219q0 -135 47 -217q66 -115 215 -115q148 0 213 113q49 86 49 219zM693 1178h-146q0 95 17.5 144t75 89t57.5 84q0 43 -22.5 61t-52.5 18q-47 0 -65 -26t-18 -81l-160 -3q0 133 77 194
q65 52 158 52q82 0 144 -32q107 -55 107 -178q0 -58 -27.5 -97.5t-86 -81t-58.5 -143.5zM995 987q43 23 64.5 68t21.5 92h-107v168h242v-172q0 -76 -31 -124t-121 -93q127 -146 127 -381q0 -281 -168 -434q-151 -140 -389 -140q-235 0 -387 140q-170 155 -170 434
q0 280 168 434q151 139 389 139q98 0 189.5 -33.5t171.5 -97.5z" />
    <glyph glyph-name="uni1EE1" unicode="&#x1ee1;" horiz-adv-x="1245" 
d="M896 545q0 135 -47 217q-65 115 -215 115q-147 0 -213 -113q-49 -86 -49 -219q0 -135 47 -217q66 -115 215 -115q148 0 213 113q49 86 49 219zM878 1503h131q-17 -117 -76 -181.5t-145 -64.5q-35 0 -70 8.5t-77 21.5l-75 24q-59 20 -81 20q-46 0 -72 -35q-17 -22 -23 -55
h-131q11 53 17 72q14 45 41 84q34 45 79.5 71.5t108.5 26.5q45 0 82 -12q41 -19 65 -29q93 -33 127 -33q48 0 69.5 23.5t29.5 58.5zM995 987q43 23 64.5 68t21.5 92h-107v168h242v-172q0 -76 -31 -124t-121 -93q127 -146 127 -381q0 -281 -168 -434q-151 -140 -389 -140
q-235 0 -387 140q-170 155 -170 434q0 280 168 434q151 139 389 139q98 0 189.5 -33.5t171.5 -97.5z" />
    <glyph glyph-name="uni1EE3" unicode="&#x1ee3;" horiz-adv-x="1245" 
d="M896 545q0 135 -47 217q-65 115 -215 115q-147 0 -213 -113q-49 -86 -49 -219q0 -135 47 -217q66 -115 215 -115q148 0 213 113q49 86 49 219zM763 -123v-237h-258v237h258zM995 987q43 23 64.5 68t21.5 92h-107v168h242v-172q0 -76 -31 -124t-121 -93q127 -146 127 -381
q0 -281 -168 -434q-151 -140 -389 -140q-235 0 -387 140q-170 155 -170 434q0 280 168 434q151 139 389 139q98 0 189.5 -33.5t171.5 -97.5z" />
    <glyph glyph-name="ygrave" unicode="&#x1ef3;" 
d="M1105 1090l-376 -1070q-103 -307 -170.5 -382.5t-251.5 -75.5h-45h-52q-22 4 -30 4v229q12 -4 53 -4q90 0 125 25q47 32 63 139l-401 1135h319l234 -803l229 803h303zM489 1237l-299 299h315l192 -299h-208z" />
    <glyph glyph-name="glyph234" unicode="&#xfd;" 
d="M1105 1090l-376 -1070q-103 -307 -170.5 -382.5t-251.5 -75.5h-45h-52q-22 4 -30 4v229q12 -4 53 -4q90 0 125 25q47 32 63 139l-401 1135h319l234 -803l229 803h303zM476 1237l192 299h315l-299 -299h-208z" />
    <glyph glyph-name="uni1EF7" unicode="&#x1ef7;" 
d="M1105 1090l-376 -1070q-103 -307 -170.5 -382.5t-251.5 -75.5h-45h-52q-22 4 -30 4v229q12 -4 53 -4q90 0 125 25q47 32 63 139l-401 1135h319l234 -803l229 803h303zM675 1178h-146q0 95 18 144t75 89t57 84q0 43 -22 61t-52 18q-48 0 -66 -26t-18 -81l-160 -3
q0 133 78 194q65 52 158 52q81 0 143 -32q107 -55 107 -178q0 -58 -27.5 -97.5t-86 -81t-58.5 -143.5z" />
    <glyph glyph-name="uni1EF9" unicode="&#x1ef9;" 
d="M1105 1090l-376 -1070q-103 -307 -170.5 -382.5t-251.5 -75.5h-45h-52q-22 4 -30 4v229q12 -4 53 -4q90 0 125 25q47 32 63 139l-401 1135h319l234 -803l229 803h303zM851 1503h131q-16 -117 -75.5 -181.5t-145.5 -64.5q-35 0 -69.5 8.5t-76.5 21.5l-75 24q-60 20 -82 20
q-45 0 -72 -35q-16 -22 -22 -55h-131q10 53 16 72q14 45 41 84q35 45 80 71.5t108 26.5q45 0 82 -12q41 -19 66 -29q92 -33 127 -33q47 0 68.5 23.5t29.5 58.5z" />
    <glyph glyph-name="uni1EF5" unicode="&#x1ef5;" 
d="M1105 1090l-376 -1070q-103 -307 -170.5 -382.5t-251.5 -75.5h-45h-52q-22 4 -30 4v229q12 -4 53 -4q90 0 125 25q47 32 63 139l-401 1135h319l234 -803l229 803h303zM1019 -111v-237h-258v237h258z" />
    <glyph glyph-name="divide" unicode="&#xf7;" horiz-adv-x="1706" 
 />
    <glyph glyph-name="ugrave" horiz-adv-x="582" 
 />
    <glyph glyph-name="uacute" horiz-adv-x="580" 
 />
    <glyph glyph-name="yacute" horiz-adv-x="629" 
 />
    <glyph glyph-name="Ccaron" unicode="&#x10c;" horiz-adv-x="1274" 
 />
    <glyph glyph-name="ccaron" unicode="&#x10d;" horiz-adv-x="922" 
 />
    <glyph glyph-name="Dslash" unicode="&#x110;" horiz-adv-x="1544" 
d="M155 647h-94v254h94v569h651q332 0 486 -245q112 -181 112 -455q0 -297 -122 -502q-162 -268 -488 -268h-639v647zM458 1217v-316h340v-254h-340v-393h299q174 0 260 156q72 129 72 340q0 284 -119 395q-78 72 -217 72h-295z" />
    <glyph glyph-name="dcroat" unicode="&#x111;" horiz-adv-x="1314" 
d="M843 1389v81h287v-81h69v-201h-69v-1188h-283v139q-51 -86 -137 -127t-182 -41q-228 0 -350 181q-109 159 -109 405q0 270 135 422q125 139 320 139q123 0 209 -57q61 -41 106 -111l4 238h-303v201h303zM364 537q0 -121 49 -211q64 -117 188 -117q127 0 195 94
q59 84 59 217q0 154 -49 242q-61 110 -196 110q-129 0 -193 -102q-53 -86 -53 -233z" />
    <glyph glyph-name="quoteleft" unicode="&#x2018;" horiz-adv-x="602" 
d="M430 1192v-262h-287v209q0 172 96 264q66 63 183 88v-107q-93 -28 -127 -81q-25 -39 -25 -111h160z" />
    <glyph glyph-name="quoteright" unicode="&#x2019;" horiz-adv-x="602" 
d="M143 1212v258h287v-208q0 -172 -97 -263q-65 -61 -186 -86v103q92 31 127 86q25 39 25 110h-156z" />
    <glyph glyph-name="quotedblleft" unicode="&#x201c;" horiz-adv-x="1060" 
d="M418 1192v-262h-287v209q0 172 96 264q66 63 187 88v-107q-93 -28 -127 -81q-25 -39 -25 -111h156zM893 1192v-262h-287v209q0 172 96 264q66 63 187 88v-107q-92 -28 -127 -81q-25 -39 -25 -111h156z" />
    <glyph glyph-name="quotedblright" unicode="&#x201d;" horiz-adv-x="1060" 
d="M131 1212v258h287v-208q0 -172 -97 -263q-65 -61 -182 -86v103q92 31 127 86q25 39 25 110h-160zM606 1212v258h287v-208q0 -172 -96 -263q-66 -61 -183 -86v103q92 31 127 86q25 39 25 110h-160z" />
    <glyph glyph-name="ellipsis" unicode="&#x2026;" horiz-adv-x="1130" 
d="M270 238v-238h-258v238h258zM671 238v-238h-258v238h258zM1073 238v-238h-258v238h258zM1073 238v-238h-258v238h258z" />
    </font>
</defs>
</svg>
